<svg width="44" height="44" viewBox="0 0 44 44" fill="none" xmlns="http://www.w3.org/2000/svg">
<path d="M18.1147 40.5381V42.7C18.1147 43.4152 18.6956 44.0003 19.4054 44.0003H24.5941C25.304 44.0003 25.8848 43.4152 25.8848 42.7V40.5381H18.1147Z" fill="#576574"/>
<path d="M20.8302 42.7V40.5381H18.1147V42.7C18.1147 43.4152 18.6955 44.0003 19.4054 44.0003H22.1209C21.411 44.0003 20.8302 43.4152 20.8302 42.7Z" fill="#3E4B5A"/>
<path d="M22.2062 0.00142C13.911 -0.111072 7.16432 6.47415 7.08517 14.7697C7.04512 18.9662 8.73869 22.767 11.493 25.5005C12.9999 26.9961 14.1148 28.8403 14.7975 30.8507L16.0368 34.4994C16.1048 34.4882 16.1743 34.4808 16.2454 34.4808H27.7543C27.8255 34.4808 27.8948 34.4881 27.963 34.4994L29.2023 30.8502C29.888 28.8313 31.0155 26.9861 32.5261 25.4813C35.2371 22.7808 36.9152 19.0443 36.9152 14.9154C36.9151 6.74674 30.3485 0.11185 22.2062 0.00142Z" fill="#FECA57"/>
<path d="M17.4536 30.8508C16.7708 28.8405 15.656 26.9963 14.1491 25.5007C11.3948 22.767 9.70119 18.9664 9.74132 14.7699C9.81549 6.99424 15.7475 0.721316 23.3219 0.0580507C22.9537 0.0257382 22.5817 0.00648816 22.2063 0.00141785C13.911 -0.110988 7.16432 6.47423 7.08517 14.7698C7.04512 18.9663 8.73869 22.767 11.4929 25.5006C12.9998 26.9962 14.1147 28.8404 14.7975 30.8507L16.0367 34.4995C16.1047 34.4882 16.1741 34.4809 16.2452 34.4809H18.6864L17.4536 30.8508Z" fill="#F4B537"/>
<path d="M27.7544 34.4805C27.8256 34.4805 27.8949 34.4878 27.9631 34.499L27.9693 34.4805H27.7544Z" fill="#F4B537"/>
<path d="M39.1306 9.72487C38.8678 9.46912 38.8621 9.04871 39.1179 8.78591L41.2625 6.58273C41.5183 6.31994 41.9387 6.31418 42.2015 6.5701C42.4643 6.82585 42.47 7.24626 42.2142 7.50905L40.0696 9.71223C39.8137 9.97503 39.3933 9.9807 39.1306 9.72487Z" fill="#FECA57"/>
<path d="M41.2625 23.4564L39.1179 21.2532C38.8621 20.9904 38.8678 20.57 39.1306 20.3142C39.3933 20.0585 39.8138 20.0639 40.0696 20.3269L42.2141 22.53C42.4699 22.7928 42.4642 23.2132 42.2014 23.4689C41.9385 23.7249 41.518 23.719 41.2625 23.4564Z" fill="#FECA57"/>
<path d="M42.4805 15.6835H40.3359C39.9692 15.6835 39.6719 15.3863 39.6719 15.0195C39.6719 14.6527 39.9691 14.3555 40.3359 14.3555H42.4805C42.8472 14.3555 43.1445 14.6527 43.1445 15.0195C43.1445 15.3863 42.8473 15.6835 42.4805 15.6835Z" fill="#FECA57"/>
<path d="M3.93192 9.71235L1.78649 7.50917C1.53057 7.24637 1.53616 6.82605 1.79895 6.57022C2.06166 6.31429 2.48207 6.31979 2.73791 6.58268L4.88334 8.78586C5.13926 9.04865 5.13367 9.46897 4.87088 9.72481C4.60808 9.98073 4.18759 9.97506 3.93192 9.71235Z" fill="#FECA57"/>
<path d="M1.79843 23.4688C1.53564 23.213 1.53014 22.7926 1.78597 22.5298L3.9314 20.3268C4.18732 20.064 4.60764 20.0585 4.87035 20.3143C5.13315 20.5701 5.13865 20.9905 4.88282 21.2532L2.73739 23.4563C2.48172 23.7191 2.06123 23.7247 1.79843 23.4688Z" fill="#FECA57"/>
<path d="M3.66502 15.6835H1.51951C1.15281 15.6835 0.855469 15.3863 0.855469 15.0195C0.855469 14.6527 1.15273 14.3555 1.51951 14.3555H3.66502C4.03172 14.3555 4.32906 14.6527 4.32906 15.0195C4.32898 15.3863 4.03172 15.6835 3.66502 15.6835Z" fill="#FECA57"/>
<path d="M24.1303 32.8327C23.7637 32.8327 23.4663 32.5314 23.4663 32.1597C23.4663 26.7568 24.6229 23.279 24.6721 23.1335C24.7911 22.7819 25.1691 22.5946 25.5157 22.7154C25.8624 22.8359 26.0471 23.2185 25.9283 23.5699C25.9137 23.6134 24.7944 27.0057 24.7944 32.1597C24.7944 32.5315 24.4971 32.8327 24.1303 32.8327Z" fill="#E59D1F"/>
<path d="M19.8696 32.8334C19.5029 32.8334 19.2055 32.5321 19.2055 32.1604C19.2055 26.9989 18.0828 23.6042 18.0714 23.5704C17.9531 23.2189 18.138 22.8364 18.4848 22.7161C18.8315 22.5959 19.2089 22.7829 19.3277 23.1341C19.377 23.2796 20.5335 26.7575 20.5335 32.1604C20.5336 32.5322 20.2363 32.8334 19.8696 32.8334Z" fill="#E59D1F"/>
<path d="M24.715 32.1689H19.2846C18.6412 32.1689 18.1147 32.6954 18.1147 33.3388V34.4811H25.8848V33.3388C25.8849 32.6954 25.3584 32.1689 24.715 32.1689Z" fill="#F4B537"/>
<path d="M21.9115 32.1689H19.2846C18.6412 32.1689 18.1147 32.6954 18.1147 33.3388V34.4811H20.7416V33.3388C20.7417 32.6954 21.2681 32.1689 21.9115 32.1689Z" fill="#E59D1F"/>
<path d="M27.7542 34.4102H16.2453C15.5354 34.4102 14.9546 34.9953 14.9546 35.7105V36.3065C14.9546 37.0216 15.5354 37.6068 16.2453 37.6068H27.7542C28.4641 37.6068 29.0449 37.0216 29.0449 36.3065V35.7105C29.0449 34.9953 28.4641 34.4102 27.7542 34.4102Z" fill="#CCD2DB"/>
<path d="M27.7542 37.5879H16.2453C15.5354 37.5879 14.9546 38.1765 14.9546 38.8958V39.4952C14.9546 40.2146 15.5354 40.8031 16.2453 40.8031H27.7542C28.4641 40.8031 29.0449 40.2145 29.0449 39.4952V38.8958C29.0449 38.1765 28.4641 37.5879 27.7542 37.5879Z" fill="#E4EAF8"/>
<path d="M27.7542 35.836H16.2453C15.745 35.836 15.31 35.5448 15.096 35.123C15.0063 35.2999 14.9546 35.4992 14.9546 35.7104V36.3064C14.9546 37.0216 15.5354 37.6067 16.2453 37.6067H27.7542C28.4641 37.6067 29.0449 37.0216 29.0449 36.3064V35.7104C29.0449 35.4992 28.9932 35.2999 28.9035 35.123C28.6895 35.5448 28.2544 35.836 27.7542 35.836Z" fill="#BCC2CC"/>
<path d="M27.7542 39.0328H16.2453C15.7431 39.0328 15.3067 38.7376 15.0935 38.3105C15.0055 38.4871 14.9546 38.6858 14.9546 38.8962V39.4956C14.9546 40.215 15.5354 40.8035 16.2453 40.8035H27.7542C28.4641 40.8035 29.0449 40.2149 29.0449 39.4956V38.8962C29.0449 38.6858 28.994 38.4871 28.9059 38.3105C28.6929 38.7375 28.2564 39.0328 27.7542 39.0328Z" fill="#CCD2DB"/>
<path d="M26.438 20.3057H17.5612C16.8513 20.3057 16.2705 20.8865 16.2705 21.5964V22.188C16.2705 22.8979 16.8514 23.4786 17.5612 23.4786H26.438C27.148 23.4786 27.7287 22.8978 27.7287 22.188V21.5964C27.7287 20.8865 27.1479 20.3057 26.438 20.3057Z" fill="#F4B537"/>
<path d="M26.4385 21.7124H17.5617C17.0631 21.7124 16.6291 21.4253 16.4143 21.0088C16.3233 21.1853 16.271 21.3846 16.271 21.5958V22.1874C16.271 22.8974 16.8518 23.4781 17.5617 23.4781H26.4385C27.1484 23.4781 27.7292 22.8973 27.7292 22.1874V21.5958C27.7292 21.3846 27.6768 21.1853 27.5859 21.0088C27.3711 21.4253 26.9371 21.7124 26.4385 21.7124Z" fill="#E59D1F"/>
</svg>
