<svg width="48" height="48" viewBox="0 0 48 48" fill="none" xmlns="http://www.w3.org/2000/svg">
<path d="M24 48C37.2548 48 48 37.2548 48 24C48 10.7452 37.2548 0 24 0C10.7452 0 0 10.7452 0 24C0 37.2548 10.7452 48 24 48Z" fill="#4BAB17" fill-opacity="0.2"/>
<path d="M18.5201 23.6324H20.4007C20.7147 23.6324 20.9693 23.8868 20.9693 24.2008V32.4699L21.0358 32.7108L21.4229 33.0368H25.2054L25.4566 32.8127L25.6294 32.5V24.2008C25.6294 23.8868 25.884 23.6324 26.198 23.6324H28.0786C28.5025 23.6324 28.7478 23.1517 28.499 22.8085L23.7198 16.2145C23.5125 15.9285 23.0863 15.9285 22.8791 16.2145L18.0999 22.8085C17.8509 23.1518 18.0961 23.6324 18.5201 23.6324Z" fill="#4BAB17"/>
</svg>
