<?xml version="1.0" standalone="no"?>
<!DOCTYPE svg PUBLIC "-//W3C//DTD SVG 20010904//EN"
 "http://www.w3.org/TR/2001/REC-SVG-20010904/DTD/svg10.dtd">
<svg version="1.0" xmlns="http://www.w3.org/2000/svg"
 width="980.000000pt" height="980.000000pt" viewBox="0 0 980.000000 980.000000"
 preserveAspectRatio="xMidYMid meet">

<g transform="translate(0.000000,980.000000) scale(0.100000,-0.100000)"
fill="#000000" stroke="none">
<path d="M3060 7819 c-304 -26 -552 -138 -750 -338 -195 -196 -305 -452 -330
-765 -14 -177 -13 -3479 1 -3641 27 -323 133 -562 338 -765 197 -196 451 -305
765 -330 71 -5 395 -10 721 -10 l592 0 6 377 c4 207 7 677 7 1045 l0 668 -370
0 -370 0 0 420 0 420 370 0 370 0 0 378 c0 428 8 508 65 680 65 194 176 365
307 471 240 197 647 268 1123 197 99 -15 190 -29 203 -33 l22 -5 -2 -352 -3
-351 -240 -6 c-248 -7 -271 -11 -361 -57 -58 -30 -119 -99 -153 -172 -48 -104
-61 -207 -61 -496 l0 -254 396 0 396 0 -6 -37 c-8 -49 -106 -785 -106 -795 0
-4 -153 -8 -340 -8 l-340 0 0 -1045 0 -1045 648 0 c361 0 700 5 767 11 323 27
562 133 765 338 195 197 305 451 330 763 14 180 14 3473 0 3638 -28 328 -133
566 -339 770 -196 195 -452 305 -765 330 -155 12 -3513 11 -3656 -1z"/>
</g>
</svg>
