<svg width="48" height="48" viewBox="0 0 48 48" fill="none" xmlns="http://www.w3.org/2000/svg">
<path d="M24 48C37.2548 48 48 37.2548 48 24C48 10.7452 37.2548 0 24 0C10.7452 0 0 10.7452 0 24C0 37.2548 10.7452 48 24 48Z" fill="#8BCAFF" fill-opacity="0.2"/>
<path d="M17.5662 30.5585L12.787 23.9645C12.5798 23.6785 12.1536 23.6785 11.9463 23.9645L7.16712 30.5585C6.91832 30.9018 7.16354 31.3824 7.58752 31.3824H9.46813C9.78211 31.3824 10.0366 31.637 10.0366 31.9508V32.5308L10.1786 32.8464L10.4774 33.0365H14.3798L14.5971 32.783L14.6966 32.5765V31.9508C14.6966 31.6368 14.9511 31.3824 15.2652 31.3824H17.1458C17.5697 31.3824 17.815 30.9018 17.5662 30.5585Z" fill="#8BCAFF"/>
<path d="M13.9735 32.9811H10.7599C10.3604 32.9811 10.0366 32.6572 10.0366 32.2578V35.685C10.0366 36.0845 10.3604 36.4083 10.7599 36.4083H13.9735C14.373 36.4083 14.6968 36.0845 14.6968 35.685V32.2578C14.6969 32.6572 14.373 32.9811 13.9735 32.9811Z" fill="#60B9FE"/>
<path d="M18.8951 25.023H20.7757C21.0897 25.023 21.3443 25.2775 21.3443 25.5915V29.5884L21.4108 29.8293L21.7979 30.1553H25.5804L25.8316 29.9312L26.0044 29.6185V25.5915C26.0044 25.2775 26.259 25.023 26.573 25.023H28.4536C28.8775 25.023 29.1228 24.5424 28.874 24.1992L24.0948 17.6051C23.8875 17.3191 23.4613 17.3191 23.2541 17.6051L18.4749 24.1992C18.2259 24.5425 18.4711 25.023 18.8951 25.023Z" fill="#60B9FE"/>
<path d="M25.2811 30.0827H22.0675C21.668 30.0827 21.3442 29.7589 21.3442 29.3594V35.6883C21.3442 36.0879 21.668 36.4116 22.0675 36.4116H25.2811C25.6806 36.4116 26.0044 36.0879 26.0044 35.6883V29.3594C26.0044 29.7589 25.6805 30.0827 25.2811 30.0827Z" fill="#1CA8FF"/>
<path d="M30.2022 18.6596H32.0828C32.3968 18.6596 32.6514 18.9141 32.6514 19.2281V26.7596L32.7421 27.0347L33.1405 27.2791H36.8346L37.1968 27.0528L37.3114 26.8262V19.2282C37.3114 18.9142 37.566 18.6597 37.88 18.6597H39.7606C40.1845 18.6597 40.4298 18.1791 40.181 17.8359L35.4018 11.2419C35.1946 10.9558 34.7684 10.9558 34.5611 11.2419L29.7819 17.8359C29.533 18.1791 29.7783 18.6596 30.2022 18.6596Z" fill="#0094FD"/>
<path d="M36.5882 27.2116H33.3747C32.9752 27.2116 32.6514 26.8877 32.6514 26.4883V35.6863C32.6514 36.0858 32.9752 36.4096 33.3747 36.4096H36.5882C36.9877 36.4096 37.3115 36.0858 37.3115 35.6863V26.4883C37.3115 26.8877 36.9877 27.2116 36.5882 27.2116Z" fill="#0084FD"/>
</svg>
