<svg width="20" height="20" viewBox="0 0 20 20" fill="none" xmlns="http://www.w3.org/2000/svg">
<path d="M6.45622 19.3697C4.68737 18.7039 3.14271 17.5518 2.00039 16.0461C0.858068 14.5404 0.164614 12.7424 0 10.8596H4.28827C4.27192 13.835 5.01831 16.7648 6.45622 19.3697ZM13.9061 10.8596C13.7254 16.2845 11.7481 20 9.96228 20C8.1755 20 6.19913 16.2845 6.01747 10.8596H13.9061ZM19.9047 10.8596C19.7439 12.745 19.0507 14.5459 17.906 16.0525C16.7612 17.5592 15.2119 18.7095 13.4386 19.3697C14.8845 16.7676 15.6347 13.8364 15.6164 10.8596H19.9047ZM19.9047 9.14036H15.6164C15.6363 6.1624 14.8868 3.23208 13.4386 0.630336C15.2125 1.28944 16.7625 2.43953 17.9074 3.94637C19.0523 5.45321 19.7451 7.25464 19.9047 9.14036ZM13.9061 9.14036H6.01747C6.19913 3.70558 8.1755 0 9.96228 0C11.7481 0 13.7155 3.70558 13.9061 9.14036ZM6.45622 0.678976C5.01681 3.28286 4.27031 6.21281 4.28827 9.18801H0C0.161326 7.30431 0.853544 5.50499 1.99631 3.99887C3.13909 2.49274 4.68555 1.34158 6.45622 0.678976Z" fill="#252525"/>
</svg>
