<svg width="25" height="18" viewBox="0 0 25 18" fill="none" xmlns="http://www.w3.org/2000/svg">
<path d="M24.4647 2.87581C24.3255 2.36144 24.054 1.89251 23.6772 1.51573C23.3004 1.13895 22.8314 0.867473 22.317 0.728338C20.4339 0.214844 12.8555 0.214844 12.8555 0.214844C12.8555 0.214844 5.27689 0.230427 3.39403 0.743921C2.87967 0.883079 2.41075 1.15457 2.03398 1.53135C1.6572 1.90812 1.38571 2.37704 1.24655 2.8914C0.676958 6.23727 0.455977 11.3353 1.26213 14.5471C1.40129 15.0615 1.67278 15.5304 2.04956 15.9072C2.42634 16.284 2.89526 16.5554 3.40961 16.6946C5.29262 17.2081 12.8711 17.2081 12.8711 17.2081C12.8711 17.2081 20.4496 17.2081 22.3326 16.6946C22.847 16.5554 23.3159 16.284 23.6927 15.9072C24.0694 15.5304 24.3409 15.0615 24.4801 14.5471C25.0807 11.1966 25.2659 6.10178 24.4645 2.87596" fill="#FF0000"/>
<path d="M10.4434 12.3532L16.7303 8.71182L10.4434 5.07031V12.3532Z" fill="white"/>
</svg>
