<svg width="20" height="20" viewBox="0 0 20 20" fill="none" xmlns="http://www.w3.org/2000/svg">
<path d="M9.99979 20C15.4609 20 20 15.461 20 10C20 4.52941 15.4508 0 9.98975 0C4.51946 0 0 4.52941 0 10C0 15.461 4.52908 20 9.99979 20ZM9.01006 16.4804C8.68629 16.4804 8.46081 16.2549 8.46081 15.9412V4.01949C8.46081 3.7158 8.69633 3.47068 9.01006 3.47068C9.30414 3.47068 9.53923 3.7158 9.53923 4.01949V15.9412C9.53923 16.2453 9.31376 16.4804 9.01006 16.4804ZM12.9707 15.0594C12.6766 15.0594 12.4415 14.8143 12.4415 14.5198V5.43169C12.4415 5.13762 12.6766 4.8925 12.9707 4.8925C13.2844 4.8925 13.5199 5.128 13.5199 5.43211V14.5202C13.5199 14.5918 13.5055 14.6628 13.4778 14.7288C13.4501 14.7949 13.4094 14.8547 13.3583 14.9049C13.3072 14.9551 13.2466 14.9946 13.18 15.0212C13.1135 15.0477 13.0423 15.0607 12.9707 15.0594ZM7.01972 13.8141C6.71561 13.8141 6.47048 13.579 6.47048 13.2749V6.66653C6.47048 6.37246 6.71561 6.13737 7.01972 6.13737C7.08929 6.1371 7.15823 6.15059 7.22255 6.17709C7.28688 6.20358 7.34533 6.24255 7.39452 6.29174C7.44371 6.34093 7.48268 6.39938 7.50917 6.4637C7.53567 6.52803 7.54917 6.59696 7.54889 6.66653V13.2745C7.54889 13.5786 7.3138 13.8141 7.01972 13.8141ZM10.9904 13.0298C10.6862 13.0298 10.4512 12.7947 10.4512 12.5006V7.45169C10.4512 7.1572 10.6867 6.92211 10.9908 6.92211C11.2945 6.92211 11.5296 7.14758 11.5296 7.45127V12.5002C11.5296 12.8043 11.2945 13.0298 10.9904 13.0298ZM14.971 11.8631C14.6669 11.8631 14.4314 11.6377 14.4314 11.3336V8.61792C14.4314 8.31423 14.6669 8.08877 14.971 8.08877C15.2747 8.08877 15.5102 8.31423 15.5102 8.61792V11.334C15.5102 11.6377 15.2751 11.8631 14.971 11.8631ZM5.01893 11.3729C4.72485 11.3729 4.48014 11.1378 4.48014 10.8437V9.10817C4.48014 8.81411 4.72485 8.57902 5.01935 8.57902C5.32304 8.57902 5.56818 8.81411 5.56818 9.10817V10.8437C5.56818 11.1378 5.32263 11.3729 5.01893 11.3729Z" fill="url(#paint0_linear_33141_33922)"/>
<defs>
<linearGradient id="paint0_linear_33141_33922" x1="0" y1="20" x2="20.6911" y2="19.5638" gradientUnits="userSpaceOnUse">
<stop stop-color="#0021FF"/>
<stop offset="1" stop-color="#7342FF"/>
</linearGradient>
</defs>
</svg>
