<svg width="13" height="20" viewBox="0 0 13 20" fill="none" xmlns="http://www.w3.org/2000/svg">
<path d="M0.388885 2.5C0.388885 1.83696 0.646424 1.20107 1.10485 0.732233C1.56327 0.263392 2.18502 0 2.83333 0L10.1667 0C10.815 0 11.4367 0.263392 11.8951 0.732233C12.3536 1.20107 12.6111 1.83696 12.6111 2.5V17.5C12.6111 18.163 12.3536 18.7989 11.8951 19.2678C11.4367 19.7366 10.815 20 10.1667 20H2.83333C2.18502 20 1.56327 19.7366 1.10485 19.2678C0.646424 18.7989 0.388885 18.163 0.388885 17.5V2.5ZM7.72222 16.25C7.72222 15.9185 7.59345 15.6005 7.36424 15.3661C7.13503 15.1317 6.82415 15 6.5 15C6.17584 15 5.86497 15.1317 5.63576 15.3661C5.40654 15.6005 5.27777 15.9185 5.27777 16.25C5.27777 16.5815 5.40654 16.8995 5.63576 17.1339C5.86497 17.3683 6.17584 17.5 6.5 17.5C6.82415 17.5 7.13503 17.3683 7.36424 17.1339C7.59345 16.8995 7.72222 16.5815 7.72222 16.25Z" fill="#0021FF"/>
</svg>
