<svg width="390" height="774" viewBox="0 0 390 774" fill="none" xmlns="http://www.w3.org/2000/svg">
<g opacity="0.06">
<path d="M103.917 707.826C101.017 704.059 97.1358 701.98 92.9868 701.98C88.8379 701.98 84.9582 704.059 82.0576 707.826C79.1256 711.808 77.5809 716.642 77.6601 721.587C77.582 726.53 79.1267 731.362 82.0576 735.342C83.6155 737.438 85.6848 739.099 88.0677 740.167V748.493L86.7629 767.096C86.7057 767.976 86.8299 768.858 87.1279 769.688C87.4259 770.518 87.8912 771.278 88.4951 771.92C89.099 772.563 89.8285 773.074 90.6384 773.423C91.4483 773.772 92.3212 773.951 93.203 773.948C94.0848 773.946 94.9566 773.762 95.7644 773.408C96.5722 773.055 97.2987 772.539 97.8989 771.893C98.499 771.247 98.9599 770.484 99.253 769.652C99.5461 768.821 99.6652 767.938 99.6028 767.058L98.1921 748.491V740.042C100.455 738.965 102.42 737.352 103.917 735.342C106.849 731.36 108.394 726.526 108.315 721.582C108.393 716.639 106.848 711.807 103.917 707.826ZM96.3369 770.467C95.7321 771.12 94.9397 771.569 94.0691 771.752C93.1984 771.935 92.2924 771.844 91.476 771.49C90.6595 771.136 89.9729 770.538 89.5109 769.778C89.0488 769.018 88.8341 768.133 88.8963 767.245L90.1347 749.598H96.131L97.4704 767.219C97.5179 767.81 97.4416 768.404 97.2464 768.963C97.0512 769.522 96.7414 770.035 96.3369 770.467ZM96.0557 747.463H90.2149V740.87C90.812 741.009 91.4185 741.102 92.0295 741.15H92.0464C92.1586 741.158 92.2711 741.165 92.3839 741.171H92.4324C92.5374 741.171 92.6423 741.18 92.7482 741.182H92.8106H92.9967H93.1225H93.1759C93.2861 741.182 93.396 741.179 93.5056 741.173H93.5224C94.3799 741.137 95.2313 741.011 96.0627 740.798V747.46L96.0557 747.463ZM96.919 738.256L96.7339 738.329C96.1394 738.564 95.5247 738.743 94.8975 738.865L94.8628 738.872C94.7229 738.898 94.5827 738.921 94.4421 738.942L94.4005 738.948C94.2533 738.969 94.1055 738.986 93.957 739L93.8966 739.005C93.7739 739.017 93.6508 739.025 93.5273 739.032L93.4175 739.038C93.2749 739.044 93.1324 739.048 92.9888 739.048C92.8453 739.048 92.7205 739.048 92.5859 739.039L92.475 739.033C92.3721 739.028 92.2691 739.021 92.1661 739.012L92.0671 739.003C91.7913 738.978 91.5167 738.941 91.2435 738.893L91.2039 738.886C91.0759 738.862 90.9482 738.837 90.8208 738.809L90.7762 738.799C90.3457 738.702 89.9218 738.578 89.5071 738.427L89.3635 738.375C83.8494 736.283 79.8024 729.546 79.8024 721.581C79.8024 711.95 85.7185 704.115 92.9908 704.115C100.263 704.115 106.176 711.954 106.176 721.582C106.176 729.403 102.276 736.035 96.916 738.26L96.919 738.256Z" fill="black"/>
<path d="M135.904 721.868H129.885C129.776 720.626 129.584 719.393 129.312 718.176L135.019 717.2L134.659 715.092L128.758 716.101C128.442 715.079 128.06 714.078 127.614 713.105L133.38 711.586L132.835 709.518L126.649 711.146L126.696 711.327C125.994 710.094 125.144 708.951 124.165 707.923L129.336 706.807L128.886 704.716L122.139 706.169L122.149 706.213C121.75 705.942 121.332 705.698 120.899 705.484C120.656 704.406 120.024 703.455 119.124 702.814C118.224 702.172 117.119 701.886 116.02 702.008C114.922 702.131 113.907 702.654 113.171 703.478C112.434 704.302 112.027 705.368 112.028 706.474V769.499C112.028 770.69 112.501 771.833 113.343 772.675C114.186 773.517 115.328 773.99 116.519 773.99C117.711 773.99 118.853 773.517 119.695 772.675C120.538 771.833 121.011 770.69 121.011 769.499V741.765C121.955 741.102 122.834 740.349 123.633 739.517L130.204 741.023L130.682 738.938L125.22 737.686C125.998 736.68 126.693 735.611 127.299 734.493L133.363 736.088L133.907 734.019L128.251 732.535C128.651 731.602 128.987 730.642 129.256 729.664L135.054 730.654L135.414 728.546L129.718 727.572C129.897 726.515 129.988 725.445 129.99 724.373C129.99 724.252 129.99 724.133 129.99 724.012H135.901V721.874L135.904 721.868ZM118.874 769.499C118.874 770.123 118.626 770.721 118.184 771.163C117.743 771.604 117.145 771.852 116.521 771.852C115.897 771.852 115.298 771.604 114.857 771.163C114.416 770.721 114.168 770.123 114.168 769.499V749.601H118.874V769.499ZM118.874 747.47H114.168V739.624H118.874V747.47ZM118.874 737.489H114.168V706.475C114.168 705.851 114.416 705.252 114.857 704.811C115.298 704.37 115.897 704.122 116.521 704.122C117.145 704.122 117.743 704.37 118.184 704.811C118.626 705.252 118.874 705.851 118.874 706.475V737.485V737.489ZM121.012 739.073V708.028C125.002 710.776 127.855 717.398 127.855 724.368C127.79 727.157 127.148 729.903 125.97 732.432C124.793 734.961 123.104 737.219 121.012 739.064V739.073Z" fill="black"/>
<path d="M94.0559 715.457H91.9176V717.595H94.0559V715.457Z" fill="black"/>
<path d="M94.0559 720.305H91.9176V722.443H94.0559V720.305Z" fill="black"/>
<path d="M94.0559 710.609H91.9176V712.748H94.0559V710.609Z" fill="black"/>
<path d="M94.056 725.152H91.9177V727.291H94.056V725.152Z" fill="black"/>
<path d="M94.0559 734.848H91.9176V736.986H94.0559V734.848Z" fill="black"/>
<path d="M94.0559 730.004H91.9176V732.142H94.0559V730.004Z" fill="black"/>
<path d="M94.056 705.766H91.9177V707.904H94.056V705.766Z" fill="black"/>
<path d="M98.3337 713.105H96.1954V715.244H98.3337V713.105Z" fill="black"/>
<path d="M98.3337 708.262H96.1954V710.4H98.3337V708.262Z" fill="black"/>
<path d="M98.3336 717.953H96.1953V720.091H98.3336V717.953Z" fill="black"/>
<path d="M98.3337 732.492H96.1954V734.631H98.3337V732.492Z" fill="black"/>
<path d="M98.3337 727.648H96.1954V729.787H98.3337V727.648Z" fill="black"/>
<path d="M98.3337 722.801H96.1954V724.939H98.3337V722.801Z" fill="black"/>
<path d="M102.611 717.879H100.473V720.017H102.611V717.879Z" fill="black"/>
<path d="M102.611 713.031H100.473V715.17H102.611V713.031Z" fill="black"/>
<path d="M102.611 722.73H100.473V724.869H102.611V722.73Z" fill="black"/>
<path d="M102.611 727.574H100.473V729.713H102.611V727.574Z" fill="black"/>
<path d="M89.7794 727.648H87.6411V729.787H89.7794V727.648Z" fill="black"/>
<path d="M89.7794 732.492H87.6411V734.631H89.7794V732.492Z" fill="black"/>
<path d="M89.7794 722.801H87.6411V724.939H89.7794V722.801Z" fill="black"/>
<path d="M89.7794 717.953H87.6411V720.091H89.7794V717.953Z" fill="black"/>
<path d="M89.7794 713.105H87.6411V715.244H89.7794V713.105Z" fill="black"/>
<path d="M89.7794 708.262H87.6411V710.4H89.7794V708.262Z" fill="black"/>
<path d="M85.5016 727.574H83.3633V729.713H85.5016V727.574Z" fill="black"/>
<path d="M85.5016 717.879H83.3633V720.017H85.5016V717.879Z" fill="black"/>
<path d="M85.5016 722.73H83.3633V724.869H85.5016V722.73Z" fill="black"/>
<path d="M85.5016 713.031H83.3633V715.17H85.5016V713.031Z" fill="black"/>
<path d="M334.812 588.368C334.306 587.489 333.55 586.78 332.64 586.331C331.73 585.882 330.708 585.712 329.702 585.844C328.696 585.976 327.752 586.404 326.989 587.073C326.226 587.741 325.679 588.621 325.416 589.601C325.153 590.581 325.187 591.617 325.514 592.578C325.84 593.538 326.444 594.381 327.249 594.998C328.054 595.615 329.024 595.98 330.036 596.046C331.049 596.112 332.058 595.876 332.936 595.368C334.112 594.687 334.97 593.568 335.321 592.256C335.673 590.944 335.49 589.546 334.812 588.368ZM332.032 593.802C331.464 594.13 330.812 594.282 330.158 594.239C329.504 594.196 328.877 593.96 328.357 593.561C327.837 593.161 327.447 592.617 327.236 591.996C327.025 591.375 327.003 590.706 327.173 590.072C327.343 589.439 327.696 588.87 328.189 588.438C328.682 588.006 329.292 587.729 329.942 587.643C330.592 587.558 331.253 587.667 331.841 587.957C332.429 588.246 332.918 588.704 333.246 589.272C333.466 589.648 333.61 590.065 333.668 590.497C333.726 590.93 333.698 591.369 333.585 591.791C333.472 592.212 333.276 592.607 333.01 592.952C332.743 593.297 332.411 593.586 332.031 593.802H332.032Z" fill="black"/>
<path d="M343.865 591.831C343.242 592.19 342.502 592.288 341.807 592.102C341.112 591.916 340.519 591.463 340.158 590.841L339.663 589.983C339.531 588.662 339.119 587.384 338.453 586.236C337.788 585.087 336.885 584.094 335.805 583.323C334.725 582.552 333.492 582.02 332.19 581.763C330.888 581.506 329.546 581.53 328.254 581.834L303.936 539.711L303.153 540.163C301.423 541.164 300.162 542.81 299.644 544.741C299.127 546.671 299.397 548.727 300.394 550.459L312.452 571.347C313.482 573.131 314.983 574.597 316.791 575.583C318.307 576.411 319.566 577.64 320.43 579.136L323.555 584.549C322.452 585.725 321.672 587.166 321.292 588.733C320.911 590.3 320.943 591.939 321.385 593.49C321.826 595.041 322.662 596.452 323.81 597.584C324.959 598.716 326.381 599.531 327.938 599.95C328.74 600.167 329.567 600.277 330.398 600.277C332.408 600.275 334.364 599.624 335.974 598.42C337.583 597.216 338.761 595.524 339.331 593.596C339.402 593.356 339.46 593.113 339.512 592.869C340.342 593.602 341.41 594.006 342.517 594.007C343.308 594.007 344.086 593.798 344.77 593.402L343.865 591.831ZM337.595 593.076C337.307 594.06 336.82 594.974 336.163 595.762C335.507 596.55 334.696 597.194 333.78 597.655C332.116 598.482 330.206 598.671 328.412 598.186C326.617 597.7 325.063 596.574 324.043 595.02C323.074 593.524 322.668 591.731 322.897 589.963C323.126 588.194 323.976 586.564 325.296 585.364L325.833 584.869L321.995 578.222C320.965 576.438 319.464 574.972 317.656 573.986C316.139 573.16 314.879 571.932 314.013 570.438L301.955 549.549C301.277 548.369 301.04 546.985 301.287 545.646C301.535 544.307 302.249 543.1 303.305 542.239L327.395 583.966L328.088 583.745C329.727 583.232 331.49 583.291 333.091 583.911C334.691 584.531 336.034 585.676 336.899 587.158C337.415 588.044 337.743 589.027 337.863 590.045C337.983 591.063 337.891 592.095 337.595 593.076Z" fill="black"/>
<path d="M310.801 589.508C310.494 588.363 309.799 587.36 308.836 586.67C307.872 585.979 306.699 585.644 305.516 585.722C304.333 585.8 303.214 586.285 302.348 587.095C301.483 587.906 300.926 588.991 300.771 590.166C300.616 591.342 300.874 592.534 301.5 593.541C302.126 594.548 303.082 595.306 304.204 595.687C305.327 596.068 306.547 596.048 307.656 595.631C308.766 595.213 309.696 594.424 310.289 593.397C310.627 592.815 310.846 592.172 310.934 591.504C311.022 590.837 310.977 590.158 310.801 589.508ZM308.722 592.493C308.338 593.158 307.736 593.668 307.018 593.939C306.3 594.209 305.51 594.222 304.783 593.975C304.057 593.728 303.438 593.237 303.033 592.586C302.628 591.934 302.462 591.162 302.562 590.401C302.662 589.641 303.023 588.938 303.583 588.414C304.143 587.889 304.868 587.575 305.633 587.525C306.399 587.475 307.158 587.692 307.782 588.139C308.406 588.586 308.855 589.236 309.053 589.977C309.281 590.826 309.162 591.731 308.723 592.492L308.722 592.493Z" fill="black"/>
<path d="M316.11 578.526L314.604 577.524C314.468 577.728 314.343 577.931 314.229 578.129L310.391 584.776L310.928 585.271C312.191 586.434 313.021 587.99 313.284 589.685C313.547 591.381 313.227 593.116 312.377 594.606C311.376 596.337 309.729 597.6 307.797 598.116C305.866 598.632 303.808 598.361 302.077 597.36C300.346 596.359 299.083 594.712 298.567 592.78C298.05 590.849 298.322 588.791 299.323 587.06C300.188 585.578 301.531 584.433 303.131 583.813C304.732 583.193 306.496 583.134 308.134 583.647L308.827 583.868L313.153 576.374L311.587 575.469L307.972 581.728C306.02 581.283 303.977 581.472 302.14 582.269C300.303 583.065 298.768 584.426 297.759 586.155C296.541 588.301 296.22 590.84 296.867 593.221C297.514 595.602 299.076 597.63 301.212 598.863C303.349 600.097 305.886 600.436 308.271 599.806C310.657 599.176 312.696 597.628 313.945 595.501C314.937 593.762 315.349 591.752 315.12 589.763C314.891 587.774 314.033 585.91 312.672 584.442L315.797 579.028C315.89 578.868 315.996 578.698 316.11 578.526Z" fill="black"/>
<path d="M336.583 544.641C336.33 543.684 335.889 542.787 335.286 542.002C334.683 541.216 333.931 540.558 333.072 540.066L332.288 539.613L319.213 562.261L320.779 563.166L332.915 542.146C333.973 543.005 334.69 544.212 334.938 545.552C335.185 546.891 334.948 548.275 334.268 549.456L323.043 568.893L324.609 569.797L335.831 550.36C336.328 549.504 336.651 548.558 336.78 547.576C336.909 546.595 336.842 545.597 336.583 544.641Z" fill="black"/>
<path d="M318.629 570.395H316.821V572.203H318.629V570.395Z" fill="black"/>
<path d="M322.367 542.902H320.559V544.711H322.367V542.902Z" fill="black"/>
<path d="M315.133 542.902H313.324V544.711H315.133V542.902Z" fill="black"/>
<path d="M318.75 542.902H316.941V544.711H318.75V542.902Z" fill="black"/>
<path d="M61.8554 453.16L44.822 432.508H43.2044L49.4412 425.715V421.941H33.471V418.702H35.2717V420.203H37.0725V416.898H31.6702V421.941H26.567V425.688L32.2157 432.508H30.5268V469.25H87.2035V453.16H61.8554ZM28.3677 425.038V423.741H47.6394V425.011L40.7601 432.506H34.555L28.3677 425.038ZM85.4018 467.449H32.3306V434.309H43.9726L61.006 454.961H85.4018V467.449Z" fill="black"/>
<path d="M77.8968 444.516H71.8937V446.316H77.8968V444.516Z" fill="black"/>
<path d="M83.9009 444.513H81.8596V446.314H83.9009C84.2988 446.314 84.6802 446.473 84.9616 446.754C85.2429 447.035 85.4012 447.417 85.4017 447.815V449.315H64.0352L49.4639 431.556L50.3825 430.665C50.5303 430.522 50.7058 430.411 50.8981 430.339C51.0904 430.267 51.2954 430.235 51.5005 430.246C51.7056 430.256 51.9063 430.309 52.0904 430.4C52.2744 430.491 52.4378 430.619 52.5704 430.775L65.7132 446.308H67.9317V444.513H66.5458L53.9445 429.614C53.6527 429.269 53.2933 428.988 52.8886 428.788C52.4838 428.588 52.0423 428.472 51.5913 428.45C51.1403 428.427 50.6894 428.496 50.2664 428.655C49.8434 428.813 49.4574 429.056 49.1322 429.37L47.0167 431.41L63.1829 451.11H87.2034V447.809C87.2008 446.934 86.8518 446.097 86.2328 445.479C85.6139 444.861 84.7754 444.514 83.9009 444.513Z" fill="black"/>
<path d="M80.8993 437.312H68.7722C67.8969 437.314 67.0577 437.662 66.4388 438.281C65.8199 438.9 65.4717 439.739 65.4706 440.614H67.2714C67.2719 440.216 67.4302 439.835 67.7115 439.553C67.9929 439.272 68.3743 439.114 68.7722 439.113H68.9524V447.818H70.7531V439.113H79.0411V447.818H80.8419V439.113H80.9023C81.3001 439.114 81.6816 439.272 81.9629 439.553C82.2443 439.835 82.4025 440.216 82.4031 440.614H84.2038C84.2028 439.738 83.8542 438.899 83.2346 438.28C82.615 437.661 81.7751 437.313 80.8993 437.312Z" fill="black"/>
<path d="M30.2892 419.117H28.4885V420.918H30.2892V419.117Z" fill="black"/>
<path d="M176.019 387.009L176.608 382.162L174.501 381.906L174.788 379.536C174.914 378.488 174.62 377.434 173.969 376.603C173.318 375.773 172.365 375.234 171.318 375.106L162.316 374.012C161.492 371.968 160.134 370.183 158.385 368.842C156.636 367.501 154.559 366.654 152.371 366.389L150.701 366.187C148.514 365.922 146.297 366.248 144.28 367.131C142.263 368.015 140.519 369.423 139.231 371.209L130.226 370.115C129.178 369.989 128.124 370.284 127.293 370.935C126.463 371.585 125.924 372.539 125.796 373.586L125.508 375.957L123.4 375.701L122.811 380.547L124.919 380.803L124.42 384.912L121.838 384.599L121.646 386.179L122.173 386.243L119.806 405.736L119.279 405.672L119.087 407.252L121.669 407.566L121.157 411.78L119.049 411.524L118.474 416.263L171.682 422.724L172.257 417.985L170.15 417.73L173.912 386.753L176.019 387.009ZM127.376 373.778C127.452 373.149 127.775 372.577 128.274 372.186C128.772 371.795 129.405 371.618 130.034 371.694L140.005 372.905L140.276 372.495C141.37 370.83 142.909 369.504 144.717 368.669C146.526 367.833 148.532 367.521 150.509 367.767L152.18 367.97C154.159 368.203 156.033 368.987 157.59 370.231C159.146 371.476 160.323 373.132 160.987 375.011L161.152 375.474L171.125 376.685C171.753 376.762 172.325 377.085 172.716 377.583C173.106 378.082 173.283 378.714 173.207 379.343L172.919 381.713L127.088 376.148L127.376 373.778ZM123.753 386.436L125.85 386.691L123.499 388.531L123.753 386.436ZM131.503 383.849L128.01 412.612L122.737 411.972L123.249 407.758L126.458 408.147L126.65 406.567L126.128 406.504L128.495 387.012L129.017 387.075L129.209 385.494L126 385.104L126.499 380.995L172.332 386.561L168.57 417.538L143.915 414.543L147.408 385.779L131.503 383.849ZM132.692 387.2L132.883 385.62L145.636 387.169L145.444 388.749L132.692 387.2ZM145.249 390.329L142.331 414.351L129.582 412.803L132.5 388.781L145.249 390.329ZM122.504 406.063L124.796 404.266L124.548 406.309L122.504 406.063ZM123.227 390.767L126.772 387.99L126.55 389.819L123.005 392.601L123.227 390.767ZM122.733 394.836L126.277 392.06L126.055 393.895L122.51 396.67L122.733 394.836ZM122.239 398.906L125.784 396.128L125.562 397.963L122.017 400.737L122.239 398.906ZM121.522 404.81L121.745 402.976L125.289 400.199L125.066 402.034L121.522 404.81ZM170.485 419.375L170.293 420.955L120.246 414.877L120.439 413.296L170.485 419.375ZM125.111 379.223L124.584 379.159L124.789 377.474L174.835 383.552L174.631 385.237L125.111 379.223Z" fill="black"/>
<path d="M371.526 363.205L363.773 355.451C363.208 354.887 362.443 354.57 361.645 354.57C360.847 354.57 360.081 354.887 359.516 355.451L357.777 357.191L365.103 364.517L363.543 366.076L356.251 358.785L355.097 359.939L362.39 367.232L360.905 368.717L353.615 361.422L352.461 362.575L359.754 369.868L358.269 371.353L350.979 364.058L349.829 365.213L357.122 372.506L355.637 373.991L348.344 366.695L347.19 367.849L354.482 375.142L352.997 376.627L345.706 369.331L344.552 370.485L351.845 377.778L350.36 379.263L343.067 371.97L341.913 373.124L349.206 380.418L347.651 381.974L340.326 374.648L338.585 376.388C338.306 376.668 338.084 377 337.933 377.365C337.781 377.73 337.703 378.121 337.703 378.517C337.703 378.912 337.781 379.304 337.933 379.669C338.084 380.034 338.306 380.366 338.585 380.645L340.912 382.972C341.17 383.23 341.315 383.58 341.315 383.945C341.315 384.31 341.17 384.661 340.912 384.919L323.771 402.051C323.207 402.616 322.891 403.382 322.891 404.18C322.891 404.978 323.207 405.743 323.771 406.308L326.098 408.635C326.377 408.914 326.709 409.136 327.074 409.287C327.439 409.439 327.831 409.516 328.226 409.516C328.622 409.516 329.013 409.439 329.378 409.287C329.743 409.136 330.075 408.914 330.355 408.635L371.527 367.462C371.807 367.182 372.029 366.851 372.18 366.485C372.332 366.12 372.41 365.729 372.41 365.333C372.41 364.938 372.332 364.547 372.18 364.181C372.029 363.816 371.806 363.484 371.526 363.205ZM370.372 366.307L329.199 407.479C328.941 407.738 328.591 407.883 328.226 407.883C327.861 407.883 327.51 407.738 327.252 407.479L324.926 405.153C324.668 404.895 324.523 404.544 324.523 404.179C324.523 403.814 324.668 403.464 324.926 403.206L342.062 386.069C342.342 385.79 342.563 385.458 342.715 385.093C342.866 384.728 342.944 384.336 342.944 383.941C342.944 383.546 342.866 383.154 342.715 382.789C342.563 382.424 342.342 382.092 342.062 381.812L339.732 379.488C339.473 379.23 339.328 378.879 339.328 378.514C339.328 378.149 339.473 377.799 339.732 377.541L340.318 376.955L347.643 384.28L367.413 364.519L360.087 357.193L360.673 356.607C360.932 356.349 361.282 356.204 361.647 356.204C362.012 356.204 362.362 356.349 362.621 356.607L370.374 364.36C370.632 364.618 370.777 364.969 370.777 365.334C370.777 365.699 370.632 366.049 370.374 366.308L370.372 366.307Z" fill="black"/>
<path d="M328.303 402.943L327.149 404.098L328.303 405.252L329.458 404.098L328.303 402.943Z" fill="black"/>
<path d="M330.611 400.643L329.457 401.797L330.611 402.951L331.765 401.797L330.611 400.643Z" fill="black"/>
<path d="M332.921 398.33L331.766 399.484L332.921 400.639L334.075 399.484L332.921 398.33Z" fill="black"/>
<path d="M363.171 67.0062L362.489 68.5977L368.775 71.2916L369.457 69.7001L363.171 67.0062Z" fill="black"/>
<path d="M390.869 68.5551L389.645 67.3305L387.236 69.7391L384.379 66.882L386.788 64.4735L385.563 63.2538L383.155 65.6624L381.93 64.4378L378.052 68.3155C377.142 69.2294 376.582 70.4345 376.471 71.7197C376.361 73.005 376.706 74.2882 377.446 75.3443L358.073 95.0684C357.692 95.4448 357.177 95.6545 356.642 95.6515C356.107 95.6484 355.594 95.4328 355.218 95.0521C354.842 94.6714 354.632 94.1568 354.635 93.6214C354.638 93.0861 354.854 92.5739 355.234 92.1975L359.9 87.2477C360.539 86.5703 360.892 85.6726 360.885 84.7417C360.878 83.8107 360.513 82.9182 359.864 82.25C359.216 81.5818 358.335 81.1895 357.405 81.1547C356.474 81.1199 355.567 81.4453 354.87 82.0632L341.172 95.0467C340.915 95.2957 340.611 95.4895 340.276 95.6163C339.942 95.743 339.585 95.7999 339.228 95.7835C338.871 95.7671 338.521 95.6777 338.2 95.5208C337.879 95.3639 337.593 95.1429 337.361 94.8714C336.926 94.364 336.702 93.7097 336.734 93.0424C336.766 92.3752 337.052 91.7454 337.533 91.2818L342.397 86.431L342.763 86.8121C343.323 87.3904 344.088 87.7255 344.893 87.7451C345.697 87.7647 346.478 87.4674 347.065 86.917L360.851 73.9207L364.018 71.231L362.9 69.9114L360.326 72.0992L356.616 68.3918L364.955 60.4057L359.267 59.976V58.1812H367.792L383.125 42.8525C383.161 42.9238 383.195 42.9951 383.224 43.0684C383.232 43.0872 383.238 43.106 383.245 43.1238C383.267 43.1842 383.289 43.2446 383.308 43.3059C383.317 43.3327 383.324 43.3604 383.332 43.3881C383.347 43.4429 383.36 43.4983 383.372 43.5544C383.378 43.5821 383.384 43.6109 383.389 43.6386C383.4 43.699 383.409 43.7603 383.416 43.8217C383.416 43.8435 383.422 43.8653 383.424 43.8871C383.432 43.9702 383.436 44.0534 383.436 44.1365C383.436 44.1514 383.436 44.1662 383.436 44.1811C383.436 44.2494 383.436 44.3177 383.426 44.386C383.426 44.4127 383.42 44.4404 383.417 44.4672C383.41 44.5236 383.402 44.581 383.392 44.6365C383.392 44.6652 383.382 44.6929 383.376 44.7216C383.364 44.78 383.35 44.8384 383.334 44.8968C383.328 44.9206 383.322 44.9434 383.315 44.9671C383.291 45.0473 383.263 45.1265 383.232 45.2047L383.22 45.2304C383.191 45.2964 383.158 45.3644 383.121 45.4344C383.108 45.4591 383.094 45.4829 383.081 45.5066C383.053 45.5581 383.023 45.6056 382.991 45.6591L382.941 45.7353C382.907 45.7848 382.87 45.8343 382.834 45.8818C382.817 45.9036 382.801 45.9254 382.783 45.9472C382.727 46.0145 382.668 46.0808 382.605 46.1452L366.935 61.8164C366.168 62.5856 365.737 63.6276 365.737 64.714C365.737 65.8004 366.168 66.8424 366.935 67.6117L367.547 68.2235L389.383 46.3877C390.194 45.5752 390.649 44.4744 390.649 43.3267C390.649 42.1791 390.194 41.0782 389.383 40.2658C388.571 39.4552 387.47 39 386.322 39C385.175 39 384.074 39.4552 383.261 40.2658L382.418 41.1092L367.073 56.4537H359.267V55.5875H355.344C354.425 55.5875 353.544 55.9525 352.894 56.6023C352.244 57.2521 351.879 58.1334 351.879 59.0524C351.879 59.9713 352.244 60.8526 352.894 61.5024C353.544 62.1522 354.425 62.5173 355.344 62.5173H359.267V61.7194L360.95 61.8461L355.387 67.1731L354.798 67.7384L354.137 68.372L341.211 80.7763C340.92 81.0546 340.688 81.3875 340.527 81.7558C340.365 82.124 340.278 82.5205 340.27 82.9225C340.262 83.3245 340.334 83.7241 340.48 84.0985C340.627 84.4729 340.846 84.8147 341.124 85.1044L341.196 85.1786L336.326 90.0384C335.715 90.6289 335.291 91.3853 335.105 92.2142C334.92 93.0431 334.981 93.9083 335.281 94.7029C335.581 95.4975 336.107 96.1869 336.795 96.6858C337.482 97.1848 338.301 97.4715 339.149 97.5107C339.215 97.5107 339.281 97.5107 339.347 97.5107C340.476 97.5105 341.56 97.0726 342.372 96.2891L356.061 83.3165C356.421 82.9702 356.904 82.781 357.403 82.7906C357.902 82.8001 358.377 83.0077 358.724 83.3675C359.07 83.7273 359.259 84.21 359.25 84.7093C359.24 85.2086 359.032 85.6837 358.673 86.03L354.007 90.9799C353.658 91.3274 353.381 91.7403 353.192 92.1949C353.003 92.6494 352.905 93.1368 352.904 93.6292C352.903 94.1215 353 94.6092 353.187 95.0644C353.375 95.5196 353.65 95.9334 353.998 96.2821C354.346 96.6309 354.758 96.9077 355.213 97.0969C355.668 97.2861 356.155 97.3839 356.647 97.3847C357.14 97.3856 357.627 97.2894 358.083 97.1017C358.538 96.9141 358.952 96.6386 359.3 96.291L378.652 76.5907C379.709 77.3761 381.012 77.7557 382.326 77.6603C383.639 77.5649 384.874 77.0009 385.806 76.0709L389.683 72.1932L388.459 70.9686L390.869 68.5551ZM383.985 47.2064L384.032 47.153C384.064 47.1153 384.097 47.0777 384.131 47.0401L384.182 46.9748C384.21 46.9391 384.239 46.9035 384.265 46.8679L384.316 46.7986C384.342 46.7629 384.367 46.7269 384.391 46.6906L384.439 46.6194C384.463 46.5818 384.486 46.5441 384.509 46.5065L384.55 46.4362C384.574 46.3956 384.597 46.355 384.619 46.3135L384.653 46.2501C384.68 46.1996 384.705 46.1511 384.729 46.0967L384.746 46.061C384.776 45.995 384.804 45.929 384.832 45.863L384.845 45.8274C384.866 45.7739 384.887 45.7205 384.906 45.666C384.914 45.6443 384.92 45.6235 384.928 45.6017C384.942 45.5571 384.957 45.5116 384.971 45.4661C384.979 45.4413 384.985 45.4175 384.992 45.3928C385.004 45.3492 385.016 45.3067 385.027 45.2631C385.033 45.2374 385.039 45.2126 385.045 45.1869C385.055 45.1433 385.065 45.0998 385.074 45.0562C385.079 45.0315 385.084 45.0067 385.089 44.981C385.098 44.9354 385.105 44.8899 385.112 44.8444C385.112 44.8216 385.119 44.7988 385.123 44.7751C385.13 44.7236 385.135 44.6761 385.141 44.6206C385.141 44.6038 385.141 44.586 385.147 44.5691C385.161 44.4299 385.167 44.2903 385.167 44.1504C385.167 44.1336 385.167 44.1157 385.167 44.0979C385.167 44.0455 385.167 43.9989 385.167 43.9425C385.167 43.9197 385.167 43.897 385.167 43.8732C385.167 43.8267 385.161 43.7801 385.157 43.7336C385.157 43.7089 385.157 43.6841 385.15 43.6594C385.146 43.6145 385.14 43.5696 385.134 43.5247C385.134 43.5 385.128 43.4742 385.124 43.4495C385.117 43.4046 385.109 43.3597 385.101 43.3149C385.101 43.2911 385.092 43.2663 385.087 43.2426C385.078 43.1951 385.067 43.1436 385.056 43.102C385.056 43.0812 385.047 43.0594 385.041 43.0387C385.028 42.9822 385.012 42.9248 384.996 42.8684L384.987 42.8367C384.967 42.7707 384.945 42.7047 384.922 42.6387L384.909 42.6041C384.889 42.5496 384.869 42.4962 384.847 42.4427C384.838 42.4209 384.83 42.4001 384.821 42.3783C384.803 42.3348 384.784 42.2912 384.764 42.2487L384.731 42.1774C384.712 42.1378 384.692 42.0972 384.672 42.0576L384.634 41.9843C384.613 41.9461 384.592 41.9078 384.569 41.8695L384.527 41.7972C384.504 41.7586 384.479 41.721 384.455 41.6834L384.412 41.6161L384.396 41.5913L384.495 41.4923C384.983 41.0059 385.643 40.7327 386.332 40.7327C387.021 40.7327 387.681 41.0059 388.169 41.4923C388.655 41.9799 388.928 42.6405 388.928 43.3292C388.928 44.0179 388.655 44.6785 388.169 45.1661L367.676 65.6584C367.676 65.6485 367.666 65.6386 367.663 65.6278C367.659 65.6169 367.647 65.5872 367.639 65.5664C367.621 65.5202 367.604 65.4733 367.589 65.4258C367.582 65.405 367.576 65.3842 367.57 65.3634C367.554 65.305 367.54 65.2466 367.528 65.1882C367.528 65.1793 367.528 65.1714 367.522 65.1625C367.509 65.0952 367.499 65.0268 367.492 64.9595C367.492 64.9397 367.492 64.9209 367.492 64.9011C367.492 64.8506 367.485 64.8021 367.485 64.7497C367.485 64.7279 367.485 64.7061 367.485 64.6833C367.485 64.6292 367.488 64.5754 367.493 64.522C367.493 64.5071 367.493 64.4923 367.493 64.4764C367.5 64.4104 367.51 64.3428 367.523 64.2735C367.523 64.2576 367.53 64.2408 367.534 64.225C367.544 64.1728 367.557 64.1214 367.571 64.0705C367.577 64.0488 367.583 64.028 367.59 64.0062C367.605 63.9567 367.623 63.9072 367.641 63.8607C367.648 63.8428 367.654 63.825 367.662 63.8072C367.688 63.7429 367.717 63.6795 367.75 63.6181L367.766 63.5874C367.794 63.536 367.824 63.4851 367.857 63.435L367.894 63.3785C367.923 63.3356 367.954 63.2937 367.986 63.2528L368.027 63.2013C368.073 63.1459 368.126 63.0915 368.173 63.039L383.833 47.3678C383.885 47.3153 383.936 47.2619 383.985 47.2064ZM357.537 60.7789H355.344C354.885 60.7789 354.444 60.5964 354.119 60.2715C353.794 59.9466 353.612 59.5059 353.612 59.0464C353.612 58.587 353.794 58.1463 354.119 57.8214C354.444 57.4965 354.885 57.314 355.344 57.314H357.538L357.537 60.7789ZM342.409 82.0276L355.366 69.5896L359.029 73.2525L345.878 85.6538C345.623 85.8925 345.285 86.0214 344.935 86.0129C344.586 86.0044 344.254 85.8591 344.011 85.6083L342.373 83.9055C342.251 83.7798 342.156 83.6312 342.092 83.4685C342.028 83.3058 341.997 83.132 342.001 82.9573C342.004 82.7825 342.042 82.6101 342.113 82.4501C342.183 82.29 342.284 82.1455 342.41 82.0246L342.409 82.0276ZM384.582 74.8404C384.235 75.1955 383.821 75.4782 383.364 75.6722C382.907 75.8661 382.416 75.9675 381.92 75.9704C381.424 75.9732 380.932 75.8775 380.472 75.6889C380.013 75.5002 379.596 75.2223 379.245 74.8712C378.894 74.5202 378.616 74.103 378.428 73.6438C378.239 73.1845 378.143 72.6925 378.146 72.1961C378.149 71.6996 378.251 71.2088 378.445 70.7518C378.639 70.2949 378.922 69.881 379.277 69.5342L381.93 66.8811L387.236 72.1873L384.582 74.8404Z" fill="black"/>
<path d="M112.35 5.99745L104.129 18.9727L105.883 20.0837L114.103 7.10852L112.35 5.99745Z" fill="black"/>
<path d="M108.68 0.803165C107.517 0.0683657 106.11 -0.175136 104.767 0.126071C103.425 0.427278 102.257 1.2486 101.519 2.40988L80.222 36.0223L81.9753 37.133L103.271 3.52063C103.714 2.82381 104.415 2.33097 105.22 2.15021C106.026 1.96945 106.87 2.11553 107.568 2.5564L109.029 3.48202L87.3666 37.6745L89.1199 38.7853L111.889 2.84052L108.68 0.803165Z" fill="black"/>
<path d="M122.637 15.5991L109.702 23.8789L110.821 25.6269L123.756 17.3471L122.637 15.5991Z" fill="black"/>
<path d="M128.498 44.4578C127.374 42.8918 125.695 41.8142 123.803 41.4453C121.912 41.0763 119.951 41.4439 118.321 42.4729L83.9641 64.2057C82.6964 65.0062 81.178 65.3112 79.6994 65.0623C78.2208 64.8134 76.886 64.0281 75.9502 62.8566C75.0144 61.6852 74.5433 60.2098 74.6272 58.7128C74.7111 57.2157 75.3439 55.8022 76.4047 54.7426L77.3502 53.8002C77.5778 53.9822 77.815 54.1517 78.061 54.308C79.7317 55.3639 81.7363 55.7582 83.6824 55.4137C85.6286 55.0692 87.3761 54.0107 88.5828 52.4455C89.7895 50.8802 90.3685 48.9209 90.2065 46.9512C90.0445 44.9815 89.1531 43.1431 87.7068 41.7961C86.2606 40.449 84.3636 39.6903 82.3873 39.6685C80.4111 39.6466 78.4978 40.3632 77.0221 41.6779C75.5464 42.9926 74.6145 44.8108 74.409 46.7765C74.2034 48.7421 74.739 50.7137 75.9108 52.3053L74.9396 53.2735C73.5194 54.6944 72.6725 56.5888 72.5609 58.5947C72.4493 60.6006 73.0807 62.5773 74.3345 64.147C75.5883 65.7167 77.3766 66.7694 79.3576 67.1038C81.3385 67.4383 83.3733 67.031 85.0729 65.9599L119.43 44.2271C120.63 43.465 122.08 43.1996 123.472 43.4869C124.865 43.7743 126.091 44.592 126.891 45.767C127.692 46.9421 128.004 48.3824 127.762 49.7835C127.52 51.1845 126.742 52.4364 125.593 53.2745L121.732 56.1038C120.866 55.283 119.744 54.7851 118.555 54.6937C117.365 54.6023 116.18 54.923 115.199 55.6019L109.798 59.3499L110.59 60.4864L106.328 63.4454L107.515 65.1501L111.778 62.1911L113.751 65.0333L109.489 67.9923L110.676 69.6971L114.939 66.7381L115.731 67.8746L121.132 64.1265C122.115 63.4421 122.831 62.4391 123.16 61.2871C123.489 60.1351 123.41 58.9049 122.936 57.8046L126.839 54.9465C128.435 53.7645 129.503 52.0031 129.813 50.0415C130.123 48.0798 129.651 46.0747 128.498 44.4578ZM77.3502 44.438C78.0785 43.289 79.1827 42.428 80.4746 42.0018C81.7666 41.5756 83.1663 41.6106 84.4354 42.1007C85.7045 42.5908 86.7643 43.5058 87.4344 44.6897C88.1045 45.8737 88.3434 47.2533 88.1103 48.5936C87.8773 49.9339 87.1867 51.152 86.1563 52.0402C85.1259 52.9285 83.8194 53.432 82.4593 53.4649C81.0993 53.4979 79.7699 53.0583 78.6977 52.221C77.6255 51.3837 76.8767 50.2005 76.579 48.8731C76.41 48.1194 76.3911 47.3398 76.5235 46.5788C76.6558 45.8179 76.9367 45.0904 77.3502 44.438ZM119.931 62.4228L116.236 64.9868L112.685 59.8706L116.38 57.3066C117.058 56.8357 117.896 56.6536 118.709 56.8004C119.111 56.8731 119.495 57.0243 119.839 57.2454C120.183 57.4665 120.48 57.7533 120.713 58.0892C120.946 58.4251 121.111 58.8037 121.198 59.2033C121.285 59.6029 121.292 60.0157 121.22 60.4181C121.147 60.8205 120.996 61.2046 120.774 61.5486C120.553 61.8926 120.267 62.1896 119.931 62.4228Z" fill="black"/>
<path d="M128.969 20.9819L126.917 17.7773L91.0801 40.7318L92.1997 42.4791L126.29 20.6413L127.223 22.0976C127.667 22.7932 127.818 23.6368 127.641 24.4431C127.464 25.2495 126.975 25.9529 126.28 26.399L92.77 47.8655L93.8896 49.6138L127.399 28.1483C128.556 27.4047 129.371 26.2329 129.665 24.8896C129.959 23.5462 129.709 22.141 128.969 20.9819Z" fill="black"/>
<path d="M79.4112 285.13C78.7346 283.537 77.6963 282.123 76.3785 281.001C75.0607 279.878 73.4997 279.078 71.8191 278.664L69.8511 274.031L66.9228 275.278L64.6815 270L58.2318 272.74L60.4731 278.018L57.5418 279.263L59.5099 283.896C58.6414 285.393 58.1335 287.072 58.0263 288.799C57.9191 290.527 58.2155 292.255 58.8921 293.848L73.215 327.565L93.738 318.847L79.4112 285.13ZM63.6707 272.507L65.1656 276.025L63.6994 276.648L62.2333 277.27L60.7384 273.752L63.6707 272.507ZM60.6523 293.098C60.0828 291.757 59.8385 290.301 59.9393 288.847C60.0402 287.394 60.4832 285.985 61.2324 284.736L64.7131 283.286L63.9786 281.522L61.0819 282.727L60.0405 280.275L64.4379 278.407L67.6632 277.037L68.8364 276.542L70.4461 280.332L70.941 280.431C72.418 280.724 73.8011 281.373 74.97 282.322C76.139 283.271 77.0583 284.491 77.6481 285.876L91.2275 317.829L74.2228 325.056L60.6523 293.098Z" fill="black"/>
<path d="M36.2386 273.625H34.327V275.537H36.2386V273.625Z" fill="black"/>
<path d="M43.8843 273.625H41.9727V275.537H43.8843V273.625Z" fill="black"/>
<path d="M32.4165 273.625H30.5048V275.537H32.4165V273.625Z" fill="black"/>
<path d="M55.352 273.625H53.4404V275.537H55.352V273.625Z" fill="black"/>
<path d="M40.0611 273.625H38.1495V275.537H40.0611V273.625Z" fill="black"/>
<path d="M51.5298 273.625H49.6182V275.537H51.5298V273.625Z" fill="black"/>
<path d="M47.7065 273.625H45.7949V275.537H47.7065V273.625Z" fill="black"/>
<path d="M42.8137 292.092L41.3895 293.367L42.6646 294.791L44.0887 293.516L42.8137 292.092Z" fill="black"/>
<path d="M54.2053 281.893L52.7811 283.168L54.0562 284.592L55.4803 283.317L54.2053 281.893Z" fill="black"/>
<path d="M48.5099 286.994L47.0858 288.27L48.3608 289.694L49.785 288.419L48.5099 286.994Z" fill="black"/>
<path d="M45.6618 289.541L44.2377 290.816L45.5127 292.241L46.9369 290.966L45.6618 289.541Z" fill="black"/>
<path d="M51.3571 284.44L49.9329 285.715L51.208 287.139L52.6321 285.864L51.3571 284.44Z" fill="black"/>
<path d="M39.9666 294.643L38.5425 295.918L39.8175 297.342L41.2417 296.067L39.9666 294.643Z" fill="black"/>
<path d="M37.1186 297.198L35.6952 298.473L36.9702 299.897L38.3937 298.622L37.1186 297.198Z" fill="black"/>
<path d="M31.4234 302.292L30 303.566L31.2751 304.991L32.6985 303.716L31.4234 302.292Z" fill="black"/>
<path d="M34.2705 299.741L32.847 301.016L34.1221 302.44L35.5455 301.165L34.2705 299.741Z" fill="black"/>
<path d="M36.4476 283.682L34.6389 284.301L35.2575 286.11L37.0662 285.491L36.4476 283.682Z" fill="black"/>
<path d="M32.8314 284.917L31.0226 285.535L31.6413 287.344L33.45 286.725L32.8314 284.917Z" fill="black"/>
<path d="M40.0652 282.444L38.2564 283.062L38.875 284.871L40.6838 284.253L40.0652 282.444Z" fill="black"/>
<path d="M43.6825 281.21L41.8737 281.828L42.4923 283.637L44.3011 283.018L43.6825 281.21Z" fill="black"/>
<path d="M47.2996 279.971L45.4908 280.59L46.1095 282.399L47.9182 281.78L47.2996 279.971Z" fill="black"/>
<path d="M54.5344 277.495L52.7256 278.113L53.3442 279.922L55.153 279.303L54.5344 277.495Z" fill="black"/>
<path d="M50.9161 278.733L49.1073 279.352L49.7259 281.16L51.5347 280.542L50.9161 278.733Z" fill="black"/>
<path d="M67.4727 280.072L65.7408 280.793L66.4757 282.558L68.2075 281.837L67.4727 280.072Z" fill="black"/>
<path d="M292.367 432.712L289.295 431.216L289.794 430.191C289.86 430.057 289.898 429.911 289.907 429.761C289.916 429.612 289.896 429.462 289.847 429.321C289.798 429.179 289.722 429.049 289.623 428.937C289.524 428.825 289.403 428.733 289.269 428.668L279.367 423.844L276.937 419.112C276.825 418.892 276.644 418.716 276.423 418.608L274.572 417.706L274.79 417.722C275.017 417.739 275.244 417.687 275.441 417.573C275.639 417.46 275.797 417.29 275.897 417.085C276.689 415.456 276.802 413.58 276.212 411.867C275.621 410.155 274.376 408.747 272.748 407.952L265.58 404.46L264.583 406.507L271.751 409.999C272.72 410.473 273.49 411.274 273.925 412.262C274.359 413.249 274.43 414.358 274.124 415.393L269.059 415.023L262.216 411.689C261.642 411.41 261.005 411.291 260.37 411.342C259.735 411.393 259.125 411.614 258.604 411.981L255.675 406.583L257.416 403.011L262.536 405.505L263.533 403.458L253.296 398.471C253.161 398.405 253.015 398.367 252.866 398.358C252.716 398.348 252.567 398.369 252.425 398.418C252.284 398.466 252.153 398.543 252.041 398.642C251.929 398.741 251.838 398.861 251.772 398.996L249.279 404.112C249.147 404.384 249.128 404.697 249.226 404.983C249.325 405.269 249.533 405.503 249.805 405.636L250.829 406.135C250.424 405.92 249.98 405.789 249.523 405.75C249.066 405.71 248.606 405.763 248.17 405.905C247.734 406.047 247.331 406.276 246.985 406.577C246.639 406.878 246.357 407.245 246.156 407.658C245.955 408.07 245.84 408.518 245.816 408.976C245.792 409.434 245.86 409.892 246.017 410.323C246.174 410.754 246.416 411.149 246.729 411.484C247.041 411.82 247.418 412.089 247.837 412.276L249.884 413.273L247.889 417.367C247.757 417.639 247.738 417.952 247.837 418.237C247.935 418.523 248.143 418.758 248.415 418.89L248.593 418.977C248.156 419.407 247.842 419.947 247.686 420.54C247.53 421.132 247.536 421.756 247.705 422.346C246.926 422.662 246.292 423.255 245.924 424.011C245.556 424.767 245.48 425.632 245.71 426.44C245.266 426.62 244.865 426.891 244.533 427.236C244.201 427.582 243.945 427.993 243.783 428.444C243.62 428.894 243.554 429.374 243.589 429.852C243.624 430.329 243.76 430.794 243.986 431.216C242.672 432.346 241.424 433.55 240.247 434.823L241.918 436.366C243.096 435.09 244.349 433.887 245.672 432.762L250.615 435.17C251.208 435.459 251.872 435.571 252.527 435.49C253.181 435.41 253.799 435.142 254.305 434.719C254.811 434.295 255.183 433.734 255.376 433.103C255.57 432.472 255.577 431.799 255.396 431.165C256.175 430.848 256.809 430.255 257.177 429.499C257.545 428.744 257.621 427.879 257.391 427.071C258.169 426.754 258.804 426.161 259.172 425.405C259.54 424.65 259.616 423.785 259.385 422.977L263.467 424.965L262.716 428.542C262.032 431.777 261.704 435.078 261.738 438.385C261.806 445.068 260.318 451.675 257.39 457.684L252.978 466.74C252.713 467.283 252.244 467.698 251.673 467.895C251.102 468.092 250.476 468.054 249.933 467.79L231.502 458.81C230.959 458.545 230.543 458.076 230.347 457.505C230.15 456.934 230.188 456.308 230.452 455.765L234.864 446.711C236.196 443.977 237.814 441.393 239.69 439L237.902 437.588C235.924 440.109 234.218 442.832 232.812 445.711L228.401 454.766C227.874 455.852 227.799 457.103 228.193 458.244C228.586 459.385 229.416 460.324 230.5 460.854L248.933 469.835C250.019 470.362 251.269 470.437 252.411 470.043C253.552 469.65 254.491 468.82 255.021 467.736L259.433 458.681C262.515 452.355 264.082 445.398 264.01 438.361C263.978 435.22 264.289 432.085 264.939 429.012L265.415 426.759C266.369 428.332 267.757 429.596 269.412 430.398L270.409 428.351C269.099 427.718 268.01 426.705 267.285 425.444C266.559 424.184 266.23 422.733 266.34 421.283L266.372 420.846C266.386 420.643 266.346 420.439 266.256 420.257C266.165 420.075 266.028 419.92 265.857 419.809L259.953 415.96C259.68 415.782 259.485 415.506 259.408 415.189C259.331 414.873 259.378 414.538 259.538 414.255C259.699 413.971 259.962 413.76 260.273 413.663C260.585 413.567 260.921 413.592 261.214 413.735L275.081 420.491L277.511 425.223C277.623 425.442 277.804 425.619 278.025 425.727L287.242 430.218L280.258 444.552L278.211 443.554L283.699 432.29L281.652 431.293L276.164 442.557L266.95 438.068L265.953 440.115L280.29 447.1C280.561 447.232 280.875 447.251 281.16 447.153C281.446 447.054 281.681 446.846 281.813 446.575L282.311 445.552L285.384 447.049C285.655 447.181 285.968 447.2 286.254 447.102C286.54 447.003 286.775 446.795 286.907 446.523L292.894 434.235C292.959 434.101 292.998 433.955 293.007 433.805C293.015 433.656 292.995 433.506 292.946 433.365C292.897 433.223 292.821 433.093 292.722 432.981C292.622 432.869 292.502 432.778 292.367 432.712ZM256.412 414.504C256.654 414.335 256.873 414.135 257.063 413.91L257.187 414.136C257.04 414.815 257.095 415.523 257.345 416.171L255.616 419.72L255.523 419.831L253.627 418.907L256.412 414.504ZM253.324 401.017L255.371 402.014L253.874 405.087L251.827 404.089L253.324 401.017ZM248.307 408.711C248.439 408.439 248.674 408.231 248.96 408.133C249.245 408.034 249.558 408.053 249.83 408.185L254.95 410.68C255.209 410.82 255.403 411.054 255.493 411.334C255.583 411.614 255.562 411.917 255.433 412.182C255.304 412.446 255.078 412.65 254.803 412.752C254.527 412.853 254.222 412.845 253.953 412.727L248.833 410.232C248.561 410.1 248.354 409.865 248.255 409.58C248.157 409.295 248.175 408.982 248.307 408.711ZM253.423 414.963L251.564 417.901L250.433 417.35L251.93 414.277C251.93 414.277 253.266 414.914 253.424 414.965L253.423 414.963ZM256.608 422.892C256.748 422.953 256.875 423.043 256.981 423.155C257.086 423.266 257.168 423.398 257.221 423.542C257.274 423.687 257.297 423.84 257.29 423.993C257.282 424.147 257.243 424.297 257.176 424.435C257.109 424.573 257.014 424.696 256.898 424.797C256.782 424.898 256.647 424.974 256.501 425.021C256.354 425.068 256.2 425.085 256.047 425.071C255.894 425.057 255.746 425.012 255.61 424.939L250.49 422.444C250.232 422.305 250.037 422.07 249.947 421.791C249.857 421.511 249.878 421.207 250.007 420.943C250.136 420.678 250.362 420.474 250.638 420.372C250.914 420.271 251.218 420.28 251.488 420.397L256.608 422.892ZM255.137 428.511C255.005 428.783 254.77 428.99 254.484 429.089C254.199 429.187 253.886 429.168 253.614 429.036L248.494 426.542C248.235 426.402 248.041 426.168 247.951 425.888C247.861 425.608 247.882 425.304 248.011 425.04C248.14 424.776 248.366 424.571 248.641 424.47C248.917 424.368 249.222 424.377 249.491 424.495L254.611 426.989C254.883 427.122 255.091 427.357 255.189 427.642C255.288 427.928 255.269 428.241 255.137 428.513L255.137 428.511ZM251.619 433.132L246.498 430.638C246.24 430.498 246.045 430.264 245.955 429.984C245.865 429.704 245.887 429.4 246.015 429.136C246.144 428.871 246.37 428.667 246.646 428.566C246.922 428.464 247.226 428.473 247.496 428.591L252.616 431.085C252.757 431.147 252.884 431.236 252.989 431.348C253.094 431.459 253.176 431.591 253.229 431.736C253.282 431.88 253.306 432.033 253.298 432.187C253.29 432.34 253.252 432.49 253.184 432.628C253.117 432.767 253.022 432.89 252.906 432.99C252.79 433.091 252.655 433.167 252.509 433.214C252.363 433.261 252.208 433.278 252.055 433.264C251.902 433.25 251.754 433.205 251.619 433.132ZM264.096 422.739L258.104 419.82L258.972 418.04L264.063 421.358C264.04 421.82 264.05 422.282 264.094 422.742L264.096 422.739ZM285.359 444.503L283.312 443.505L288.301 433.265L290.348 434.263L285.359 444.503Z" fill="black"/>
<path d="M242.609 399.602L246.703 401.596L245.706 403.643L241.612 401.649L242.609 399.602Z" fill="black"/>
<path d="M235.441 396.105L239.535 398.1L238.538 400.147L234.444 398.152L235.441 396.105Z" fill="black"/>
<path d="M244.739 395.59L246.544 394.203L249.319 397.814L247.513 399.201L244.739 395.59Z" fill="black"/>
<path d="M239.884 389.27L241.689 387.882L244.464 391.493L242.658 392.881L239.884 389.27Z" fill="black"/>
<path d="M239.811 405.707L244.365 405.666L244.385 407.943L239.831 407.984L239.811 405.707Z" fill="black"/>
<path d="M231.836 405.777L236.39 405.737L236.41 408.014L231.857 408.054L231.836 405.777Z" fill="black"/>
<path d="M245.733 455.607C247.635 456.531 249.825 456.663 251.823 455.974C253.822 455.284 255.465 453.831 256.394 451.932L258.388 447.838C258.454 447.703 258.493 447.557 258.502 447.407C258.512 447.258 258.492 447.108 258.443 446.966C258.394 446.824 258.318 446.694 258.219 446.581C258.119 446.469 257.999 446.377 257.864 446.312L249.672 442.32C247.77 441.397 245.58 441.265 243.582 441.954C241.584 442.643 239.94 444.097 239.012 445.996L237.017 450.09C236.952 450.224 236.913 450.371 236.904 450.52C236.895 450.669 236.916 450.819 236.964 450.96C237.013 451.102 237.089 451.232 237.188 451.344C237.288 451.456 237.408 451.548 237.542 451.613L245.733 455.607ZM241.06 446.995C241.723 445.638 242.897 444.6 244.325 444.108C245.752 443.616 247.316 443.71 248.675 444.37L255.843 447.862L254.346 450.934C253.683 452.291 252.509 453.329 251.081 453.821C249.654 454.313 248.089 454.219 246.731 453.56L239.561 450.066L241.06 446.995Z" fill="black"/>
<path d="M304.184 72.9847C303.979 72.2156 303.551 71.5246 302.953 70.9993C302.355 70.474 301.615 70.1382 300.826 70.0343C300.037 69.9305 299.234 70.0634 298.521 70.4161C297.808 70.7688 297.215 71.3255 296.818 72.0155L280.216 100.781V95.4471C280.216 94.7437 280.077 94.0471 279.808 93.3972C279.539 92.7473 279.144 92.1568 278.647 91.6593C278.149 91.1619 277.559 90.7673 276.909 90.4981C276.259 90.2289 275.562 90.0904 274.859 90.0904H268.161V87.4155H274.857C275.206 87.406 275.537 87.2608 275.781 87.0107C276.024 86.7607 276.16 86.4255 276.16 86.0766C276.16 85.7276 276.024 85.3925 275.781 85.1424C275.537 84.8923 275.206 84.7471 274.857 84.7376V80.7193C274.857 80.3641 274.716 80.0234 274.465 79.7722C274.214 79.521 273.873 79.3799 273.518 79.3799H268.161C267.806 79.3799 267.465 79.521 267.214 79.7722C266.963 80.0234 266.821 80.3641 266.821 80.7193V84.7366C266.646 84.7366 266.471 84.7713 266.309 84.8386C266.146 84.9059 265.999 85.0046 265.874 85.1289C265.75 85.2533 265.651 85.401 265.584 85.5635C265.517 85.726 265.482 85.9002 265.482 86.0761V90.2834C264.336 90.5796 263.321 91.2468 262.594 92.181C261.867 93.1152 261.471 94.2636 261.466 95.4471V103.565C260.857 103.765 260.304 104.104 259.849 104.555C259.567 104.836 259.185 104.994 258.787 104.994C258.389 104.994 258.007 104.836 257.726 104.555C256.93 103.794 255.871 103.37 254.77 103.37C253.669 103.37 252.61 103.794 251.814 104.555C250.974 105.41 250.296 106.411 249.815 107.51H247.953L246.414 104.103C246.141 103.498 246.102 102.813 246.306 102.18C246.509 101.548 246.941 101.014 247.516 100.682L252.816 97.6221C253.391 97.2886 254.07 97.1813 254.72 97.3212C255.369 97.461 255.944 97.8379 256.331 98.3784C256.433 98.5214 256.563 98.6428 256.713 98.7356C256.863 98.8284 257.029 98.8909 257.203 98.9194C257.376 98.9479 257.554 98.9419 257.726 98.9017C257.897 98.8615 258.059 98.788 258.202 98.6853C258.345 98.5826 258.466 98.4527 258.559 98.3031C258.652 98.1535 258.714 97.9871 258.743 97.8133C258.771 97.6396 258.765 97.4619 258.725 97.2905C258.685 97.1191 258.611 96.9573 258.509 96.8143C257.971 96.0668 257.249 95.4716 256.413 95.0867C255.576 94.7018 254.654 94.5405 253.737 94.6185L251.46 90.6745L249.451 87.1927L250.611 86.5235L255.25 83.8457C255.402 83.7581 255.536 83.6413 255.644 83.502C255.751 83.3626 255.83 83.2034 255.876 83.0335C255.922 82.8636 255.934 82.6863 255.912 82.5118C255.889 82.3372 255.832 82.1688 255.745 82.0162L253.06 77.3693C252.972 77.2165 252.855 77.0824 252.716 76.9748C252.577 76.8672 252.417 76.7881 252.247 76.7421C252.077 76.6962 251.9 76.6842 251.725 76.7069C251.551 76.7295 251.382 76.7864 251.229 76.8743L246.59 79.5522L232.674 87.5917C232.521 87.6793 232.387 87.7962 232.279 87.9358C232.171 88.0754 232.092 88.2349 232.046 88.4051C232 88.5754 231.988 88.753 232.011 88.9279C232.034 89.1028 232.091 89.2714 232.179 89.4241L234.862 94.0612C234.95 94.2138 235.067 94.3478 235.206 94.4553C235.345 94.5628 235.505 94.6419 235.674 94.6878C235.844 94.7338 236.022 94.7458 236.196 94.7232C236.371 94.7006 236.539 94.6439 236.692 94.5561C237.149 94.2921 237.654 94.1207 238.177 94.0518C238.7 93.9829 239.232 94.0179 239.742 94.1547C240.252 94.2915 240.73 94.5275 241.149 94.8491C241.567 95.1707 241.919 95.5718 242.182 96.0292L244.459 99.9713C243.933 100.727 243.612 101.607 243.528 102.524C243.443 103.441 243.597 104.364 243.976 105.203L245.013 107.505H238.7C238.521 107.5 238.343 107.531 238.177 107.596C238.01 107.661 237.858 107.759 237.73 107.884C237.602 108.009 237.5 108.158 237.43 108.323C237.36 108.488 237.325 108.665 237.325 108.844C237.325 109.023 237.36 109.2 237.43 109.365C237.5 109.53 237.602 109.679 237.73 109.804C237.858 109.929 238.01 110.026 238.177 110.092C238.343 110.157 238.521 110.188 238.7 110.183H249.012L248.629 112.861H238.7C238.521 112.856 238.343 112.887 238.177 112.952C238.01 113.017 237.858 113.115 237.73 113.24C237.602 113.364 237.5 113.514 237.43 113.679C237.36 113.843 237.325 114.021 237.325 114.2C237.325 114.379 237.36 114.556 237.43 114.721C237.5 114.885 237.602 115.035 237.73 115.159C237.858 115.284 238.01 115.382 238.177 115.447C238.343 115.512 238.521 115.543 238.7 115.539H241.571L241.984 118.216H238.7C238.345 118.216 238.004 118.358 237.753 118.609C237.502 118.86 237.361 119.201 237.361 119.556C237.361 133.586 249.375 144.998 264.144 144.998C269.931 145.01 275.574 143.198 280.272 139.819L279.064 147.677H249.223L248.573 143.461C248.55 143.284 248.491 143.115 248.401 142.962C248.311 142.808 248.191 142.674 248.049 142.568C247.907 142.461 247.745 142.384 247.572 142.341C247.4 142.297 247.221 142.289 247.045 142.316C246.869 142.342 246.701 142.404 246.549 142.496C246.397 142.589 246.265 142.71 246.161 142.854C246.057 142.998 245.982 143.162 245.942 143.335C245.901 143.508 245.896 143.687 245.925 143.863L246.751 149.219C246.798 149.536 246.958 149.826 247.2 150.035C247.443 150.245 247.753 150.36 248.073 150.361H280.216C280.535 150.36 280.844 150.246 281.087 150.038C281.33 149.829 281.49 149.541 281.538 149.225L283.384 137.213C285.756 134.922 287.645 132.18 288.941 129.147C290.236 126.114 290.911 122.853 290.925 119.555C290.925 119.2 290.784 118.86 290.533 118.609C290.282 118.358 289.942 118.217 289.588 118.216H286.307L286.72 115.539H289.591C289.946 115.539 290.287 115.397 290.538 115.146C290.789 114.895 290.93 114.554 290.93 114.199V108.841C290.93 108.486 290.789 108.145 290.538 107.894C290.287 107.643 289.946 107.502 289.591 107.502H285.61L290.419 99.1743C290.511 99.0219 290.571 98.8527 290.597 98.6767C290.622 98.5007 290.612 98.3214 290.568 98.1492C290.523 97.9771 290.445 97.8155 290.337 97.6739C290.23 97.5323 290.095 97.4136 289.941 97.3247C289.787 97.2358 289.617 97.1784 289.44 97.1559C289.264 97.1335 289.085 97.1463 288.913 97.1938C288.742 97.2413 288.582 97.3225 288.442 97.4325C288.302 97.5426 288.186 97.6794 288.1 97.8349L282.517 107.502H279.424L299.141 73.354C299.226 73.196 299.342 73.0567 299.481 72.9443C299.621 72.8319 299.782 72.7488 299.955 72.6998C300.127 72.6507 300.308 72.6369 300.486 72.659C300.664 72.6811 300.835 72.7387 300.991 72.8284C301.146 72.9181 301.282 73.0381 301.39 73.1812C301.498 73.3244 301.576 73.4878 301.62 73.6617C301.663 73.8357 301.672 74.0166 301.644 74.1938C301.617 74.371 301.554 74.5409 301.459 74.6934L290.778 93.1969C290.686 93.3494 290.626 93.5185 290.6 93.6945C290.575 93.8705 290.585 94.0498 290.629 94.222C290.674 94.3942 290.752 94.5558 290.86 94.6973C290.967 94.8389 291.102 94.9576 291.256 95.0465C291.41 95.1355 291.58 95.1929 291.757 95.2153C291.933 95.2378 292.112 95.2249 292.284 95.1774C292.455 95.1299 292.615 95.0488 292.755 94.9387C292.895 94.8286 293.011 94.6919 293.097 94.5363L303.782 76.0328C304.047 75.5764 304.219 75.0721 304.288 74.5489C304.357 74.0258 304.321 73.4942 304.184 72.9847ZM246.507 98.1636L245.171 95.8431L247.49 94.5037L249.807 93.1702L251.146 95.4897L246.507 98.1636ZM251.408 79.8709L252.747 82.1904L250.428 83.5299L249.758 82.3706L249.089 81.2114L251.408 79.8709ZM238.687 91.3377C237.97 91.3379 237.258 91.4536 236.579 91.6803L235.172 89.245L246.769 82.5488L247.438 83.7081L248.107 84.8673L246.953 85.5375C246.8 85.6251 246.666 85.7419 246.559 85.8812C246.451 86.0206 246.372 86.1798 246.326 86.3497C246.28 86.5196 246.268 86.6969 246.291 86.8714C246.313 87.046 246.37 87.2144 246.458 87.367L248.466 90.8487L246.993 91.7021L243.717 93.5939C243.086 92.8838 242.311 92.3156 241.444 91.9267C240.578 91.5378 239.638 91.3371 238.689 91.3377H238.687ZM264.144 102.146V99.4674H277.535V102.145L264.144 102.146ZM269.5 82.0588H272.178V84.7366H269.5V82.0588ZM266.822 92.7742H274.857C275.566 92.7742 276.247 93.0556 276.749 93.5568C277.251 94.0579 277.534 94.7378 277.535 95.4471V96.7865H264.144V95.4471C264.145 94.7376 264.428 94.0576 264.93 93.5564C265.432 93.0553 266.113 92.7739 266.822 92.7742ZM248.253 115.543L246.333 128.929L244.28 115.538L248.253 115.543ZM242.394 120.889L244.135 132.184C241.752 128.873 240.347 124.96 240.08 120.889H242.394ZM288.207 120.889C287.941 124.958 286.538 128.871 284.157 132.182L285.894 120.889H288.207ZM288.248 112.855H273.134C272.956 112.85 272.778 112.881 272.611 112.946C272.444 113.011 272.292 113.109 272.164 113.234C272.036 113.359 271.934 113.508 271.864 113.673C271.794 113.838 271.759 114.015 271.759 114.194C271.759 114.373 271.794 114.55 271.864 114.715C271.934 114.879 272.036 115.029 272.164 115.154C272.292 115.278 272.444 115.376 272.611 115.441C272.778 115.506 272.956 115.537 273.134 115.533H284.008L280.874 135.916C276.378 139.95 270.575 142.223 264.536 142.317C258.496 142.41 252.626 140.318 248.007 136.425L251.408 134.383C251.981 134.038 252.645 133.874 253.313 133.909C253.981 133.944 254.623 134.178 255.158 134.581C256.206 135.361 257.478 135.783 258.785 135.783C260.092 135.783 261.365 135.361 262.413 134.581C262.947 134.178 263.59 133.944 264.258 133.909C264.926 133.874 265.589 134.038 266.163 134.383C266.738 134.73 267.4 134.906 268.072 134.892C268.744 134.877 269.398 134.673 269.958 134.301C270.518 133.93 270.961 133.407 271.235 132.794C271.51 132.181 271.605 131.503 271.509 130.838L270.643 124.777C270.622 124.6 270.565 124.428 270.477 124.273C270.389 124.118 270.27 123.982 270.129 123.873C269.987 123.764 269.825 123.685 269.653 123.64C269.48 123.594 269.3 123.584 269.123 123.609C268.946 123.635 268.776 123.695 268.623 123.787C268.47 123.879 268.337 124 268.232 124.144C268.126 124.289 268.051 124.452 268.009 124.626C267.968 124.8 267.962 124.98 267.992 125.156L268.858 131.217C268.881 131.38 268.858 131.546 268.791 131.696C268.724 131.847 268.615 131.975 268.478 132.066C268.341 132.157 268.181 132.207 268.016 132.211C267.851 132.215 267.689 132.172 267.548 132.087C266.821 131.656 266.012 131.382 265.172 131.283L264.144 116.781C264.114 116.429 263.948 116.103 263.679 115.873C263.411 115.643 263.063 115.528 262.711 115.553C262.358 115.578 262.03 115.741 261.797 116.006C261.564 116.272 261.445 116.618 261.466 116.971L262.507 131.543C261.896 131.748 261.321 132.048 260.805 132.434C260.221 132.869 259.513 133.103 258.785 133.103C258.057 133.103 257.348 132.869 256.764 132.434C256.309 132.096 255.81 131.822 255.279 131.622L257.437 114.364C257.481 114.011 257.383 113.655 257.164 113.374C256.946 113.093 256.624 112.911 256.271 112.867C255.918 112.822 255.562 112.92 255.281 113.139C255 113.358 254.818 113.679 254.774 114.032L252.627 131.245C251.707 131.324 250.817 131.612 250.026 132.087L248.458 133.024L251.671 110.495C251.726 110.112 251.812 109.735 251.928 109.366L251.94 109.339C252.288 108.244 252.892 107.247 253.702 106.432C253.984 106.151 254.366 105.993 254.764 105.993C255.162 105.993 255.544 106.151 255.826 106.432C256.622 107.193 257.68 107.617 258.781 107.617C259.882 107.617 260.941 107.193 261.737 106.432C262.019 106.151 262.401 105.993 262.799 105.993C263.197 105.993 263.579 106.151 263.86 106.432C264.67 107.246 265.274 108.243 265.623 109.337L265.634 109.365C265.751 109.734 265.837 110.112 265.892 110.496L267.231 119.844C267.251 120.023 267.306 120.196 267.394 120.353C267.481 120.51 267.6 120.647 267.742 120.757C267.884 120.868 268.046 120.948 268.22 120.994C268.394 121.04 268.575 121.051 268.753 121.025C268.931 121 269.102 120.939 269.256 120.846C269.41 120.753 269.543 120.63 269.649 120.484C269.754 120.338 269.829 120.173 269.869 119.998C269.909 119.822 269.913 119.641 269.881 119.464L268.563 110.177H288.248V112.855ZM267.756 107.498C267.318 106.515 266.721 105.61 265.99 104.82H277.535V105.414L276.33 107.493L267.756 107.498Z" fill="black"/>
<path d="M68.323 572.155L36.0474 574.958C34.4683 575.182 32.9504 575.721 31.5833 576.542C30.2162 577.364 29.0279 578.451 28.0886 579.74L9.888 607.267C8.61232 609.203 9.05819 610.595 9.4457 611.24C9.8332 611.885 10.8094 612.86 13.1619 612.715L15.8441 612.47L22.737 623.942C22.2423 624.588 21.951 625.366 21.9002 626.178C21.8495 626.99 22.0416 627.799 22.4521 628.502C22.8745 629.184 23.4853 629.729 24.2108 630.072C24.9363 630.415 25.7455 630.541 26.5408 630.434L29.477 642.625L38.5091 637.197L29.1238 628.882C29.6057 628.231 29.8817 627.451 29.9163 626.642C29.9509 625.834 29.7424 625.033 29.3178 624.344C28.8932 623.654 28.2719 623.108 27.534 622.775C26.796 622.442 25.9753 622.338 25.1775 622.475L19.0167 612.222L23.9383 611.806L32.8978 626.717C33.0423 626.945 33.2521 627.125 33.5 627.233C37.8273 628.781 42.4496 629.327 47.0185 628.83C51.5875 628.333 55.9841 626.805 59.8773 624.363C63.8518 622.078 67.2543 618.919 69.8268 615.125C72.3993 611.33 74.0744 607 74.7251 602.462C74.7464 602.193 74.6861 601.923 74.5523 601.688L65.6347 586.847L71.5965 577.605C72.8717 575.668 72.4263 574.277 72.0383 573.632C71.6222 573.059 71.0522 572.617 70.3945 572.355C69.7368 572.094 69.0185 572.025 68.323 572.155ZM72.0435 602.708C71.3496 606.737 69.781 610.565 67.4483 613.922C65.1155 617.279 62.0752 620.084 58.5414 622.14C55.0676 624.295 51.1636 625.662 47.1042 626.146C43.0449 626.63 38.9288 626.218 35.0459 624.939L26.9032 611.387L46.0106 609.567C47.5774 609.355 49.0823 608.817 50.4276 607.986C51.8374 607.189 53.0367 606.067 53.926 604.713L63.9416 589.225L72.0435 602.708ZM69.3867 576.2L63.3247 585.599C63.1585 585.683 63.0199 585.812 62.9259 585.973C62.8318 586.133 62.7863 586.317 62.7949 586.503L51.7591 603.381C50.3027 605.33 48.1393 606.63 45.7343 607.001L21.0789 609.325L41.5397 593.517C41.6819 593.417 41.8027 593.29 41.8949 593.143C41.9871 592.995 42.0489 592.831 42.0767 592.659C42.1045 592.488 42.0976 592.312 42.0566 592.144C42.0155 591.975 41.9411 591.816 41.8377 591.676C41.7342 591.536 41.6039 591.419 41.4544 591.33C41.3048 591.242 41.139 591.184 40.9668 591.16C40.7946 591.137 40.6195 591.148 40.4516 591.193C40.2838 591.239 40.1268 591.317 39.9897 591.424L16.2734 609.773L12.9594 610.104C12.5597 610.192 12.1416 610.131 11.7836 609.933C11.7407 609.862 11.7118 609.489 12.1844 608.815L30.3427 581.218C31.0393 580.269 31.9222 579.473 32.9375 578.878C33.9556 578.232 35.0998 577.81 36.2937 577.642L68.5654 574.84C69.3827 574.74 69.6984 574.94 69.7846 575.084C69.7516 575.484 69.6144 575.869 69.3867 576.2Z" fill="black"/>
<path d="M335.748 736.341L334.968 735.092C334.972 735.077 334.961 735.06 334.951 735.042L333.796 722.598C333.692 721.53 333.264 720.519 332.571 719.701C331.878 718.882 330.951 718.294 329.915 718.015L300.24 710.058C299.203 709.782 298.107 709.827 297.097 710.189C296.087 710.551 295.211 711.213 294.586 712.085L287.437 722.167L285.511 723.053C284.567 723.494 283.73 724.134 283.058 724.93C282.387 725.726 281.897 726.659 281.622 727.664L277.249 743.974C276.901 745.329 277.102 746.768 277.808 747.976C278.515 749.184 279.669 750.065 281.021 750.427L284.087 751.249C284.748 751.425 285.436 751.47 286.114 751.38C286.792 751.29 287.445 751.067 288.037 750.725C288.628 750.382 289.147 749.926 289.562 749.383C289.977 748.84 290.282 748.221 290.458 747.56L291.031 745.423L319.438 753.039L318.876 755.135C318.693 755.794 318.641 756.484 318.724 757.164C318.807 757.843 319.024 758.5 319.361 759.096C319.699 759.692 320.15 760.215 320.69 760.636C321.23 761.058 321.848 761.368 322.508 761.55L325.601 762.38C326.953 762.743 328.393 762.557 329.609 761.865C330.825 761.172 331.719 760.027 332.096 758.679L336.579 741.961C336.832 741.017 336.889 740.032 336.746 739.065C336.603 738.098 336.264 737.171 335.748 736.341ZM296.974 713.747C297.251 713.36 297.642 713.068 298.091 712.91C298.541 712.753 299.028 712.738 299.487 712.868L329.146 720.82C329.608 720.937 330.023 721.194 330.333 721.555C330.644 721.916 330.836 722.364 330.882 722.839L331.869 733.158L329.717 732.581C329.897 730.591 329.369 728.601 328.225 726.962C327.082 725.324 325.396 724.141 323.466 723.624C321.536 723.106 319.485 723.287 317.675 724.134C315.865 724.981 314.412 726.439 313.573 728.252L290.971 722.193L296.974 713.747ZM326.847 731.812L316.441 729.021C317.056 727.961 318.004 727.132 319.138 726.664C320.271 726.196 321.528 726.115 322.712 726.432C323.897 726.75 324.944 727.449 325.691 728.421C326.439 729.394 326.845 730.585 326.847 731.812ZM287.672 746.768C287.6 747.061 287.472 747.337 287.294 747.58C287.116 747.823 286.892 748.029 286.634 748.185C286.376 748.341 286.091 748.445 285.793 748.491C285.495 748.537 285.191 748.524 284.898 748.452L281.79 747.619C281.183 747.459 280.664 747.066 280.343 746.526C280.023 745.986 279.927 745.342 280.078 744.732L280.779 742.117C281.41 742.657 282.156 743.047 282.959 743.259L288.233 744.673L287.672 746.768ZM329.3 757.929C329.125 758.533 328.72 759.043 328.172 759.35C327.625 759.657 326.979 759.737 326.373 759.572L323.304 758.749C323.013 758.67 322.741 758.535 322.502 758.351C322.264 758.167 322.064 757.937 321.915 757.676C321.765 757.415 321.668 757.126 321.63 756.827C321.592 756.529 321.613 756.225 321.692 755.935L322.265 753.797L327.538 755.211C328.339 755.432 329.18 755.466 329.997 755.313L329.3 757.929ZM328.291 752.401L283.71 740.449C283.103 740.293 282.582 739.904 282.26 739.366C281.939 738.828 281.843 738.185 281.993 737.576L284.444 728.435C284.611 727.834 284.905 727.276 285.306 726.798C285.707 726.32 286.206 725.935 286.769 725.666L288.895 724.654L332.337 736.301L333.283 737.836C333.59 738.333 333.793 738.887 333.88 739.465C333.966 740.042 333.933 740.632 333.784 741.196L331.216 750.774C331.042 751.376 330.637 751.885 330.089 752.19C329.541 752.495 328.895 752.571 328.291 752.401Z" fill="black"/>
<path d="M297.355 731.449L288.636 729.112C288.263 729.013 287.866 729.065 287.532 729.258C287.197 729.451 286.953 729.769 286.852 730.141L285.231 736.189C285.132 736.562 285.185 736.959 285.377 737.293C285.57 737.627 285.888 737.872 286.26 737.973L294.98 740.311C295.353 740.41 295.75 740.357 296.084 740.164C296.419 739.971 296.663 739.654 296.764 739.281L298.385 733.233C298.484 732.86 298.431 732.463 298.238 732.129C298.045 731.794 297.728 731.55 297.355 731.449ZM294.327 737.12L288.42 735.536L289.288 732.302L295.195 733.886L294.327 737.12Z" fill="black"/>
<path d="M329.701 740.121L320.981 737.783C320.608 737.684 320.211 737.737 319.877 737.93C319.542 738.123 319.298 738.44 319.197 738.813L317.576 744.861C317.477 745.234 317.53 745.631 317.722 745.965C317.915 746.299 318.233 746.544 318.605 746.645L327.325 748.982C327.698 749.081 328.095 749.029 328.429 748.836C328.764 748.643 329.008 748.325 329.109 747.953L330.73 741.905C330.829 741.532 330.776 741.135 330.584 740.801C330.391 740.467 330.073 740.222 329.701 740.121ZM326.672 745.792L320.765 744.208L321.633 740.974L327.54 742.558L326.672 745.792Z" fill="black"/>
<path d="M313.483 740.896L302.275 737.891C302.089 737.836 301.893 737.819 301.7 737.84C301.507 737.862 301.32 737.922 301.15 738.017C300.98 738.112 300.831 738.24 300.712 738.393C300.593 738.547 300.505 738.723 300.455 738.911C300.404 739.098 300.392 739.294 300.419 739.487C300.445 739.68 300.51 739.865 300.61 740.032C300.709 740.199 300.841 740.345 300.997 740.46C301.154 740.576 301.332 740.658 301.521 740.704L312.73 743.709C312.916 743.764 313.112 743.782 313.305 743.76C313.499 743.739 313.686 743.679 313.855 743.584C314.025 743.489 314.174 743.361 314.293 743.207C314.413 743.054 314.5 742.878 314.55 742.69C314.601 742.502 314.613 742.306 314.586 742.113C314.56 741.921 314.495 741.735 314.395 741.568C314.296 741.401 314.164 741.256 314.008 741.14C313.851 741.025 313.673 740.942 313.484 740.897L313.483 740.896Z" fill="black"/>
<path d="M314.426 737.381L303.218 734.376C303.032 734.321 302.836 734.303 302.643 734.325C302.45 734.346 302.263 734.406 302.093 734.501C301.923 734.596 301.774 734.724 301.655 734.878C301.536 735.031 301.448 735.207 301.398 735.395C301.347 735.583 301.335 735.779 301.362 735.971C301.388 736.164 301.453 736.349 301.553 736.517C301.652 736.684 301.784 736.829 301.94 736.945C302.097 737.06 302.275 737.143 302.464 737.188L313.673 740.194C313.859 740.249 314.055 740.266 314.248 740.245C314.442 740.223 314.629 740.163 314.798 740.068C314.968 739.973 315.117 739.845 315.236 739.691C315.356 739.538 315.443 739.362 315.493 739.174C315.544 738.986 315.556 738.79 315.529 738.598C315.503 738.405 315.438 738.22 315.338 738.053C315.239 737.886 315.107 737.74 314.951 737.625C314.794 737.509 314.616 737.426 314.427 737.381L314.426 737.381Z" fill="black"/>
<path d="M341.082 706.331C341.262 706.395 341.452 706.424 341.643 706.415C341.833 706.407 342.02 706.36 342.193 706.279C342.366 706.198 342.521 706.084 342.649 705.943C342.778 705.802 342.877 705.637 342.942 705.458C343.004 705.291 343.031 705.114 343.021 704.937C343.004 702.87 342.271 700.873 340.949 699.285C339.638 697.728 337.882 696.61 335.916 696.082C334.138 695.527 332.233 695.525 330.454 696.076C328.675 696.628 327.105 697.706 325.953 699.169L311.946 695.414C311.472 693.787 310.594 692.306 309.395 691.109C308.195 689.912 306.712 689.038 305.083 688.568C303.108 688.001 301.002 688.086 299.079 688.813C297.056 689.648 295.402 691.185 294.421 693.141C294.239 693.482 294.2 693.881 294.313 694.25C294.425 694.62 294.679 694.929 295.02 695.111C295.15 695.178 295.29 695.226 295.434 695.252L300.113 696.129C300.179 696.553 300.155 696.986 300.044 697.4C299.933 697.814 299.737 698.2 299.468 698.534L294.953 696.932C294.774 696.867 294.583 696.838 294.392 696.847C294.201 696.855 294.014 696.901 293.841 696.982C293.668 697.063 293.513 697.178 293.385 697.319C293.256 697.46 293.156 697.625 293.091 697.805C293.03 697.971 293.003 698.148 293.012 698.326C293.129 700.267 293.827 702.128 295.013 703.669C296.2 705.209 297.822 706.358 299.669 706.967C301.516 707.576 303.503 707.616 305.373 707.083C307.243 706.55 308.91 705.469 310.159 703.978L324.112 707.719C324.542 709.345 325.389 710.831 326.57 712.029C327.75 713.226 329.224 714.094 330.844 714.546C330.872 714.554 330.897 714.576 330.924 714.583C332.896 715.151 334.996 715.075 336.921 714.368C338.936 713.557 340.598 712.058 341.613 710.139C341.706 709.971 341.766 709.788 341.787 709.598C341.809 709.407 341.793 709.215 341.74 709.031C341.687 708.847 341.598 708.676 341.478 708.527C341.358 708.378 341.21 708.254 341.042 708.162C340.908 708.08 340.759 708.025 340.603 707.999L335.924 707.122C335.859 706.698 335.883 706.265 335.994 705.851C336.105 705.437 336.301 705.051 336.569 704.717L341.082 706.331ZM333.431 708.952C333.521 709.177 333.668 709.376 333.856 709.529C334.044 709.682 334.268 709.786 334.507 709.829L337.753 710.428C336.948 711.175 335.958 711.693 334.885 711.93C333.813 712.167 332.697 712.114 331.651 711.777C330.408 711.408 329.292 710.702 328.425 709.738C327.558 708.774 326.974 707.589 326.739 706.314C326.689 706.04 326.564 705.785 326.377 705.578C326.19 705.371 325.95 705.22 325.682 705.141L309.903 700.911C309.598 700.834 309.278 700.855 308.986 700.972C308.695 701.089 308.448 701.295 308.281 701.561C307.534 702.775 306.403 703.705 305.068 704.205C303.733 704.704 302.269 704.744 300.909 704.318C299.907 704.089 298.973 703.627 298.183 702.97C297.393 702.313 296.768 701.479 296.36 700.536L299.301 701.596C299.532 701.679 299.779 701.702 300.021 701.664C300.263 701.626 300.492 701.528 300.686 701.379L300.725 701.345C301.774 700.546 302.526 699.419 302.863 698.144C303.199 696.869 303.101 695.518 302.583 694.306C302.49 694.082 302.343 693.886 302.154 693.735C301.965 693.584 301.741 693.484 301.503 693.443L298.201 692.829C298.991 692.057 299.979 691.516 301.056 691.268C302.133 691.02 303.257 691.072 304.306 691.421C305.556 691.793 306.679 692.501 307.555 693.466C308.43 694.432 309.025 695.619 309.274 696.898C309.327 697.165 309.454 697.411 309.642 697.608C309.829 697.805 310.069 697.945 310.333 698.011L326.169 702.257C326.467 702.345 326.786 702.334 327.077 702.224C327.368 702.114 327.615 701.912 327.78 701.649C328.526 700.44 329.655 699.515 330.986 699.021C332.317 698.526 333.776 698.489 335.13 698.916C336.129 699.158 337.058 699.629 337.843 700.292C338.628 700.956 339.248 701.793 339.653 702.737L336.712 701.677C336.481 701.594 336.234 701.571 335.992 701.609C335.75 701.647 335.521 701.745 335.327 701.894L335.288 701.928C334.251 702.733 333.507 703.857 333.171 705.126C332.835 706.395 332.927 707.74 333.431 708.952Z" fill="black"/>
<path d="M154.147 503.947C152.811 503.88 151.476 503.809 150.14 503.735C150.029 502.125 149.919 500.466 149.753 498.832C149.722 498.523 149.615 498.227 149.443 497.969C149.27 497.711 149.037 497.499 148.764 497.351C148.504 497.213 148.216 497.134 147.921 497.121C147.627 497.107 147.333 497.16 147.062 497.275C146.79 497.39 146.547 497.564 146.352 497.784C146.156 498.005 146.012 498.266 145.93 498.55C144.796 501.774 143.658 504.941 142.521 508.143C142.411 508.436 142.372 508.751 142.405 509.062C142.438 509.373 142.543 509.672 142.712 509.935C142.883 510.191 143.111 510.404 143.379 510.557C143.647 510.71 143.946 510.799 144.254 510.816C145.626 510.914 146.988 510.972 148.341 511.037C148.448 512.538 148.564 514.354 148.726 515.935C148.774 516.418 149.004 516.864 149.369 517.184C149.734 517.504 150.207 517.673 150.692 517.658C151.115 517.653 151.526 517.51 151.861 517.25C152.195 516.991 152.437 516.629 152.548 516.221C153.653 513.083 154.845 509.769 155.958 506.625C156.069 506.331 156.109 506.015 156.075 505.703C156.041 505.391 155.934 505.091 155.762 504.827C155.581 504.564 155.341 504.347 155.06 504.194C154.779 504.041 154.467 503.956 154.147 503.947ZM154.174 505.99C152.983 509.353 150.842 515.541 150.675 515.764C150.655 515.766 150.608 515.771 150.604 515.74C150.411 513.92 150.296 511.906 150.173 510.196C150.16 509.924 150.045 509.667 149.849 509.478C149.653 509.288 149.392 509.181 149.12 509.177C147.546 509.097 145.966 509.038 144.384 508.924C144.269 508.915 144.256 508.889 144.3 508.77C145.047 506.665 147.46 499.592 147.785 499.008C147.834 498.995 147.863 499.011 147.868 499.02C148.054 500.858 148.171 502.729 148.301 504.563C148.312 504.835 148.428 505.092 148.623 505.282C148.818 505.471 149.078 505.58 149.35 505.584C150.916 505.666 152.483 505.755 154.049 505.833C154.209 505.841 154.22 505.852 154.173 505.993L154.174 505.99ZM187.826 526.619C188.05 526.505 188.219 526.307 188.296 526.069C188.374 525.831 188.353 525.571 188.24 525.348L178.79 506.802L182.575 506.723C182.841 506.717 183.102 506.643 183.332 506.509C183.563 506.375 183.756 506.185 183.892 505.956C184.029 505.727 184.105 505.467 184.114 505.2C184.123 504.934 184.064 504.67 183.943 504.432L181.375 499.391C181.239 499.128 181.033 498.908 180.778 498.756C180.524 498.604 180.233 498.526 179.937 498.532L160.769 498.94C159.603 497.348 158.12 496.014 156.414 495.023C154.707 494.032 152.814 493.406 150.854 493.182C148.893 492.959 146.908 493.144 145.022 493.726C143.137 494.308 141.392 495.274 139.898 496.563C138.405 497.853 137.194 499.437 136.343 501.218C135.492 502.998 135.018 504.935 134.953 506.907C134.887 508.879 135.23 510.843 135.961 512.676C136.692 514.509 137.794 516.171 139.199 517.557L127.905 532.422L125.655 528.005L134.709 516.08C134.861 515.881 134.927 515.629 134.893 515.38C134.859 515.132 134.728 514.907 134.528 514.755C134.328 514.604 134.076 514.538 133.828 514.572C133.58 514.606 133.355 514.737 133.203 514.937L124.029 527.017C123.851 527.254 123.742 527.536 123.716 527.831C123.689 528.126 123.746 528.422 123.88 528.687L126.449 533.728C126.57 533.965 126.749 534.168 126.97 534.318C127.191 534.467 127.446 534.558 127.712 534.582C127.977 534.606 128.245 534.562 128.489 534.454C128.733 534.347 128.945 534.179 129.107 533.967L131.399 530.95L145.777 559.168L142.24 560.97C141.838 561.176 141.534 561.532 141.395 561.961C141.255 562.39 141.292 562.857 141.496 563.259L142.526 565.281C142.731 565.683 143.088 565.987 143.517 566.126C143.946 566.265 144.413 566.229 144.815 566.025L199.281 538.272C199.682 538.067 199.986 537.711 200.126 537.282C200.265 536.852 200.229 536.386 200.024 535.983L198.994 533.962C198.789 533.56 198.433 533.256 198.003 533.117C197.574 532.977 197.107 533.014 196.705 533.218L193.168 535.02L189.957 528.718C189.843 528.495 189.645 528.326 189.407 528.248C189.168 528.171 188.909 528.191 188.685 528.305C188.462 528.419 188.293 528.617 188.215 528.855C188.138 529.094 188.158 529.353 188.272 529.576L191.483 535.879L170.314 546.665L167.149 540.454C168.589 539.461 169.619 537.979 170.049 536.283C170.48 534.588 170.28 532.794 169.489 531.234L166.68 525.722C166.463 525.298 166.087 524.976 165.633 524.829C165.179 524.682 164.686 524.72 164.261 524.936L162.804 525.679L161.317 522.762C161.203 522.538 161.005 522.369 160.767 522.292C160.529 522.214 160.269 522.235 160.046 522.349C159.822 522.462 159.653 522.66 159.576 522.899C159.498 523.137 159.519 523.397 159.633 523.62L161.119 526.538L157.751 528.254L156.264 525.337C156.208 525.226 156.13 525.128 156.036 525.047C155.941 524.966 155.832 524.905 155.714 524.867C155.596 524.828 155.471 524.814 155.347 524.823C155.224 524.833 155.103 524.867 154.992 524.923C154.882 524.98 154.783 525.057 154.703 525.152C154.622 525.246 154.561 525.356 154.522 525.474C154.484 525.592 154.469 525.716 154.479 525.84C154.489 525.964 154.523 526.084 154.579 526.195L156.066 529.113L154.608 529.856C154.183 530.072 153.861 530.449 153.713 530.902C153.565 531.356 153.603 531.85 153.819 532.276L156.627 537.787C157.423 539.344 158.758 540.56 160.382 541.208C162.007 541.857 163.811 541.894 165.461 541.313L168.627 547.525L147.457 558.312L132.664 529.281L140.63 518.795C142.769 520.409 145.318 521.388 147.986 521.623C150.655 521.857 153.336 521.336 155.722 520.12C158.109 518.904 160.106 517.041 161.485 514.744C162.864 512.448 163.57 509.81 163.521 507.131L176.686 506.85L186.551 526.21C186.608 526.321 186.686 526.42 186.78 526.5C186.875 526.581 186.985 526.642 187.103 526.68C187.221 526.719 187.346 526.733 187.47 526.723C187.594 526.713 187.715 526.679 187.826 526.622L187.826 526.619ZM158.315 536.928L155.548 531.499L165.038 526.663L167.805 532.092C168.134 532.716 168.335 533.4 168.398 534.103C168.46 534.805 168.383 535.513 168.169 536.186C167.956 536.858 167.611 537.482 167.154 538.02C166.698 538.558 166.139 539 165.511 539.32C164.882 539.641 164.196 539.833 163.493 539.886C162.789 539.939 162.082 539.851 161.412 539.629C160.743 539.406 160.124 539.053 159.593 538.589C159.061 538.126 158.626 537.561 158.315 536.928ZM197.395 534.989L198.254 536.673L144.125 564.254L143.267 562.569L197.395 534.989ZM154.87 518.436C152.685 519.55 150.218 519.99 147.782 519.702C145.347 519.414 143.051 518.411 141.186 516.818C139.321 515.225 137.97 513.115 137.304 510.755C136.638 508.394 136.686 505.889 137.444 503.556C138.202 501.223 139.634 499.168 141.56 497.649C143.486 496.13 145.819 495.217 148.264 495.024C150.709 494.831 153.156 495.368 155.297 496.566C157.437 497.764 159.174 499.57 160.288 501.755C161.777 504.686 162.042 508.088 161.026 511.215C160.011 514.341 157.796 516.937 154.869 518.433L154.87 518.436ZM163.37 505.244C163.141 503.73 162.669 502.262 161.973 500.898C161.958 500.868 161.943 500.838 161.928 500.81L179.783 500.424L182.034 504.842L163.37 505.244Z" fill="black"/>
<path d="M208.515 646.453H192.812C192.602 646.453 192.401 646.537 192.252 646.685C192.104 646.834 192.02 647.035 192.02 647.245V654.749C192.02 654.959 192.104 655.161 192.252 655.309C192.401 655.458 192.602 655.541 192.812 655.541H208.515C208.725 655.541 208.926 655.458 209.075 655.309C209.224 655.161 209.307 654.959 209.307 654.749V647.245C209.307 647.035 209.224 646.834 209.075 646.685C208.926 646.537 208.725 646.453 208.515 646.453ZM207.717 653.957H193.613V648.046H207.718L207.717 653.957Z" fill="black"/>
<path d="M215.794 645.652H212.95V645.424C212.949 644.73 212.673 644.065 212.183 643.575C211.692 643.084 211.027 642.808 210.334 642.807H204.98V637.575H212.801C213.54 637.575 214.249 637.281 214.771 636.758C215.294 636.235 215.588 635.526 215.588 634.787C215.588 634.048 215.294 633.339 214.771 632.816C214.249 632.294 213.54 632 212.801 632H188.532C187.793 632 187.084 632.294 186.562 632.816C186.039 633.339 185.745 634.048 185.745 634.787C185.745 635.526 186.039 636.235 186.562 636.758C187.084 637.281 187.793 637.575 188.532 637.575H196.353V642.807H190.997C190.304 642.809 189.639 643.085 189.148 643.576C188.658 644.068 188.383 644.733 188.383 645.427V645.655H182.465V641.334C182.465 641.219 182.44 641.105 182.391 641.001C182.343 640.896 182.273 640.803 182.185 640.729L177.119 636.414V632.801C177.119 632.591 177.036 632.389 176.887 632.241C176.739 632.092 176.537 632.009 176.327 632.009H172.792C172.582 632.009 172.38 632.092 172.232 632.241C172.083 632.389 172 632.591 172 632.801V669.198C172 669.408 172.083 669.61 172.232 669.758C172.38 669.907 172.582 669.99 172.792 669.99H176.322C176.532 669.99 176.734 669.907 176.882 669.758C177.031 669.61 177.114 669.408 177.114 669.198V665.586L182.181 661.27C182.269 661.196 182.339 661.104 182.387 660.999C182.436 660.895 182.461 660.781 182.461 660.667V656.344H188.376V656.572C188.377 657.266 188.653 657.931 189.143 658.421C189.634 658.912 190.299 659.188 190.993 659.189H210.336C211.029 659.187 211.693 658.911 212.184 658.421C212.674 657.93 212.949 657.265 212.95 656.572V656.344H215.794C216.789 656.346 217.742 656.742 218.446 657.446C219.15 658.149 219.546 659.102 219.548 660.097V665.592C219.548 665.802 219.632 666.003 219.78 666.152C219.929 666.3 220.13 666.384 220.34 666.384H229.44C229.65 666.384 229.851 666.3 230 666.152C230.148 666.003 230.232 665.802 230.232 665.592V660.099C230.228 656.27 228.706 652.599 225.999 649.891C223.293 647.183 219.623 645.658 215.794 645.652ZM187.334 634.792C187.334 634.635 187.365 634.479 187.426 634.334C187.486 634.189 187.574 634.057 187.686 633.946C187.797 633.835 187.929 633.748 188.074 633.688C188.22 633.628 188.375 633.597 188.532 633.598H212.801C213.117 633.598 213.421 633.724 213.645 633.948C213.87 634.172 213.995 634.476 213.995 634.793C213.995 635.11 213.87 635.414 213.645 635.638C213.421 635.862 213.117 635.988 212.801 635.988H188.532C188.375 635.988 188.22 635.957 188.075 635.897C187.93 635.837 187.798 635.749 187.687 635.638C187.575 635.527 187.487 635.395 187.427 635.25C187.367 635.105 187.336 634.95 187.336 634.793L187.334 634.792ZM197.937 637.579H203.382V642.812H197.937V637.579ZM175.526 668.401H173.593V633.598H175.526V668.401ZM180.872 660.296L177.118 663.494V638.505L180.872 641.704V660.296ZM182.465 654.752V647.247H188.38V654.751L182.465 654.752ZM211.358 656.572C211.358 656.843 211.25 657.104 211.058 657.296C210.866 657.487 210.606 657.595 210.335 657.596H190.996C190.724 657.595 190.464 657.487 190.273 657.295C190.081 657.103 189.973 656.843 189.973 656.572V645.427C189.973 645.156 190.081 644.895 190.273 644.703C190.465 644.512 190.725 644.404 190.997 644.403H210.336C210.607 644.404 210.867 644.512 211.059 644.703C211.251 644.895 211.359 645.156 211.359 645.427V656.571L211.358 656.572ZM228.648 664.797H221.14V660.099C221.138 658.682 220.575 657.323 219.573 656.321C218.57 655.319 217.212 654.755 215.794 654.753H212.95V647.247H215.794C219.201 647.252 222.468 648.607 224.877 651.016C227.287 653.424 228.643 656.69 228.648 660.097V664.797Z" fill="black"/>
<path d="M224.24 669.691C223.76 670.384 219.548 676.561 219.548 679.246C219.548 680.664 220.111 682.023 221.114 683.026C222.117 684.028 223.476 684.592 224.894 684.592C226.312 684.592 227.672 684.028 228.674 683.026C229.677 682.023 230.24 680.664 230.24 679.246C230.24 676.561 226.03 670.385 225.548 669.691C225.471 669.59 225.372 669.509 225.258 669.452C225.145 669.396 225.02 669.367 224.893 669.367C224.766 669.367 224.641 669.396 224.528 669.452C224.414 669.509 224.315 669.59 224.238 669.691H224.24ZM224.894 683C223.899 682.998 222.945 682.602 222.242 681.898C221.538 681.194 221.142 680.241 221.14 679.246C221.14 677.797 223.23 674.118 224.894 671.572C226.557 674.12 228.648 677.797 228.648 679.246C228.646 680.241 228.25 681.194 227.546 681.898C226.843 682.602 225.889 682.998 224.894 683Z" fill="black"/>
</g>
</svg>
